<svg height="689.165" viewBox="0 0 265.332 182.342" width="1002.83" xmlns="http://www.w3.org/2000/svg"><path d="m179.703 3.27-13.507.442-1.473 8.718s-47.585-4.715-62.428-7.097c-14.843-2.382-23.657-2.701-32.251 4.936-8.595 7.636-4.312 20.601-4.312 20.601L24.928 83.878s-6.876 4.814-12.715 8.964c-5.84 4.15-9.85 25.12-10.287 40.59-.437 15.47 3.001 28.803 3.001 28.803l7.586 1.13-2.537 14.365c-.046 3.707 49.512 1.574 49.512 1.574l-2.92-15.691s14.298-1.4 13.315-5.697c-.982-4.297-4.683-47.168-4.683-47.168l15.225-27.601 19.946-37.079s7.53-4.812 25.238-8.348c17.708-3.536 38.892-2.688 38.892-2.688l1.145 10.83 16.563-.37.627-13.234 16.616-1.793.656 7.858s22.182 1.424 23.683 7.072c1.5 5.648 12.824 8.618 12.824 8.618l-1.856 14.317-5.62 2.676 2.046 25.907 3.493-1.278 2.21-16.476 11.215-.098.135 17.827 3.793.467 3.684-27.895-7.722-1.818 1.391-14.34S261.8 44.511 261.39 27.69c-.409-16.82-18.772-15.544-18.772-15.544s-8.648-1.374-14.815-2.7c-6.166-1.326-27.199-1.657-27.199-1.657l-1.391 7.415-16.726.689zM72.488 46l19.018 1.423-15.525 30.13-13.07 24.702-13.479-15.199-1.691-2.85z" fill="#fff"/><path d="M8.238 179.036c-.114-2.796-.124-1.478 1.352-10.968.366-2.354 1.548-2.549-1.331-2.549-1.715 0-3.98-.73-5.033-1.621-4.942-4.187-3.78-49.326.611-60.511C7.256 94.68 10.928 89.81 17.07 85.842c3.12-2.017 6.775-5.313 8.122-7.325 2.943-4.397 19.096-25.753 29.077-38.443 7.036-8.945 7.195-9.262 7.2-14.363.009-8.002 1.53-12.137 6.082-16.521 7.903-7.611 17.687-8.848 41.637-5.26 9.927 1.486 48.665 5.865 52.126 5.892 1.602.012 2.085-.513 2.085-2.269 0-1.37.713-4.198 1.88-4.823C169.164.65 177.675-.36 179.18.117c1.785.566 3.671 4.254 3.692 7.216.027 3.948 1.385 4.79 7.752 4.806 5.877.015 6.015-.041 6.79-2.765.783-2.746.294-4.545 8.798-4.313 7.854.215 10.834.195 19.535 1.796 6.407 1.18 12.215 1.721 15.139 1.414 3.881-.409 5.783-.033 10.46 2.066 9.16 4.111 13.986 11.605 13.986 21.721 0 7.433-2.524 12.618-9.138 18.776l-5.235 4.874.322 5.328c.29 4.78.533 5.329 2.368 5.329 1.125 0 2.546.5 3.158 1.112 2.217 2.217.814 25.57-1.843 30.675-.686 1.318-1.74 2.929-5.168 2.708-7.057.032-4.342-3.591-4.18-10.633l.206-9.035H239.385v7.774c0 8.588-1.154 11.018-5.725 12.053-3.669.83-5.395-1.406-5.395-6.993 0-2.553-.472-8.646-1.05-13.54-1.135-9.627-1.205-9.415 4.192-12.73 1-.615 1.693-2.8 2.056-6.487l.549-5.56-4.62-2.082c-3.298-1.487-5.04-2.967-6.087-5.175-1.411-2.974-1.76-3.134-9.142-4.176-4.221-.596-9.323-1.256-11.338-1.467-4.447-.466-6.067-2.438-6.067-7.387 0-2.889-.247-3.467-1.112-2.602-.612.611-2.905 1.112-5.097 1.112h-3.984v3.593c0 2.69-.123 3.851.388 5.667 1.46 5.197-1.055 6.226-13.594 6.404-7.428.106-9.405-1.29-10.43-7.36l-.666-3.937-11.906.628c-13.778.728-32.035 3.479-40.707 6.135l-6.023 1.845-7.792 14.13c-9.866 17.894-20.739 36.799-24.792 43.11-2.5 3.892-2.945 5.244-2.19 6.655 4.811 13.981 5.436 35.94 5.818 48.562.97 1.905.834 2.41-1.054 3.939-1.335 1.081-3.637 1.759-6.001 1.768-5.957.022-6.503.46-4.695 5.492 1.897 5.284 2.344 7.752-.742 10.43-2.184 1.894-5.39.475-30.018 1.115-17.882.464-18.652.12-21.14-.036-1.139-.07-2.669-.232-2.783-3.036zm47.599-1.952c1.462-.407.001-1.87-.533-5.88l-.527-3.944-20.025.335c-11.014.184-20.193-.887-20.399-.682-.205.206-.992 2.286-1.119 4.675-.416 7.827 3.868 6.004 21.593 5.549 11.223-.289 20.138.19 21.01-.053zm-1.433-17.462c5.77-.536 10.917-.422 10.456-2.288-.263-1.064.113-30.282-1.562-36.855-3.844-15.084-11.231-26.232-20.563-31.032-5.184-2.666-15.228-2.443-20.918.465-8.699 4.446-14.42 13.576-15.558 24.83-.58 5.736-1.833 36.88-.692 42.584.154 5.97 4.585 3.209 22.726 3.208 13.465 0 20.396-.38 26.11-.912zm-39.97-9.829c-1.762-.755-2.085-1.606-2.085-5.497 0-2.531.429-5.729.952-7.106.924-2.43 1.118-2.488 6.608-1.99 3.112.282 6.18 1.068 6.817 1.748 1.618 1.722 2.317 9.666 1.009 11.455-1.283 1.754-10.262 2.693-13.3 1.39zm9.212-4.219c.266-.266.29-1.499.054-2.738-.355-1.858-1.153-2.361-4.544-2.87-2.262-.339-4.305-.424-4.54-.19-.234.235-.163 1.745.16 3.356.545 2.73.849 2.928 4.484 2.928 2.145 0 4.119-.219 4.385-.486zm11.564 2.223c-1.445-.84-1.601-1.697-1.055-5.764.862-6.41 1.801-7.408 6.298-6.69 6.161.986 7.11 1.9 7.11 6.857 0 2.429-.5 4.916-1.112 5.528-1.368 1.368-8.927 1.414-11.241.07zm7.72-4.873c0-1.507-.663-2.386-2.085-2.767-3.276-.878-3.475-.752-3.475 2.196 0 2.471.308 2.78 2.78 2.78 2.31 0 2.78-.372 2.78-2.209zm10.505 3.282c-1.652-1.106-2.057-3.647-.846-5.304 1.739-2.377 4.24-1.05 4.24 2.25 0 2.704-1.67 4.207-3.394 3.054zm-21.96-22.046c-2.98-1.05-5.942-2.822-8.878-5.759-6.334-6.334-6.881-11.424-2.229-20.744 6.41-9.92 18.966-10.019 25.537-4.875 7.651 6.009 10.309 15.751 6.39 23.43-2.167 4.246-3.001 6.644-7.403 8.483-4.137 1.729-6.362 1.95-12.145-.087zm11.254-6.42c6.46-4.525 6.273-14.561-.37-19.786-2.724-2.143-10.352-2.669-14.704-1.014-4.72 1.794-6.727 11.603-3.274 15.993 4.14 5.264 14.005 7.848 18.348 4.807zm27.957-20.46c3.581-7.642 10.671-20.892 20.663-38.614 2.531-4.489 4.348-8.416 4.038-8.726-.801-.801-.592-1.115-9.425 14.136-19.221 33.185-20.995 36.57-20.402 38.933.315 1.252.752 2.277.973 2.277.22 0 2.09-3.603 4.153-8.006zm-.176-14.235c.321-.764 4.255-8.184 8.742-16.488 4.487-8.305 8.158-15.29 8.158-15.522 0-.233-1.15-.423-2.554-.423-1.405 0-4.012-.427-5.792-.949-2.729-.799-3.423-.69-4.416.695-.648.904-6.157 9.166-12.243 18.36L51.34 85.436l6.207 6.466 6.208 6.466 3.086-6.965c1.698-3.832 3.349-7.592 3.67-8.357zm181.795-4.401c.03-3.28-.348-5.792-.873-5.792-.564 0-.885 3.713-.82 9.498.085 7.571.262 8.747.873 5.792.422-2.038.79-6.313.82-9.498zm-17.985-6.01c-2.063-1.465-2.419-.493-1.858 5.083.867 8.627 1.665 9.359 2.274 2.085.338-4.036.18-6.744-.416-7.167zm-184.084 6.01c1.68-2.097 6.089-11.003 10.944-19.07l8.829-14.67c-1.926-2.21-3.992-4.31-5.83-6.596-.298-.396-6.646 7.11-14.106 16.68s-15.072 19.173-16.917 21.34l-3.354 3.937 4.479.072c2.463.039 6.147.62 8.185 1.293 5.454 1.797 3.6 2.22 6.913-1.916zM246.8 74.705c0-1.544-.618-1.853-3.707-1.853s-3.707.309-3.707 1.853c0 1.545.618 1.854 3.707 1.854s3.707-.31 3.707-1.854zm-.75-12.48c.36-2.533.571-4.684.47-4.781-.586-.564-8.484-.655-8.292-.096.127.373.232 2.787.232 5.367v4.689l3.468-.288c3.4-.282 3.481-.377 4.122-4.891zm1.49-11.997c3.229-1.692 7.91-6.681 9.813-10.459 3.641-7.23.58-18.214-6.253-22.437-4.162-2.572-4.831-2.438-2.517.504 8.808 11.197-.488 25.705-17.769 27.731-5.875.69-6.639 1.525-2.78 3.042 7.783 3.058 15.53 3.702 19.507 1.619zm-73.2-6.229c2.392-.579 4.613-.81 4.936-1.122.557-.54-1.233-25.24-2.463-33.807-.44-3.067-.906-3.885-1.974-3.475-.77.295-2.812.536-4.539.536-2.943-.516-2.824-.21-2.61 5.005.363 8.805-.266 26.982.96 33.298.787.787.574.803 5.69-.435zm-71.263-4.943c13.064-4.096 32.827-6.978 47.856-6.978h11.539V16.325h-4.537c-8.28 0-34.647-3.828-48.747-7.077-7.645-1.762-16.61-3.437-19.924-3.722-11.693-.554-21.43 7.073-22.05 17.083-.276 5.17.037 6.917 1.847 10.298 1.27 2.372 3.49 4.775 5.316 5.755 8.739 5.92 20.747 2.814 28.7.394zm-26.549-3.809c-9.843-5.047-8.293-19.27 2.729-25.028 5.867-3.066 19.132-.326 22.116 4.569 2.186 3.586 2.327 9.859.315 14.098-2.944 6.205-18.027 10.018-25.16 6.361zm17.128-7.475c4.66-3.467 3.94-9.273-1.605-12.943-4.488-2.97-8.69-2.532-12.241 1.276-4.91 5.265-5.569 8.628-2.36 12.062 1.861 1.994 2.703 2.194 7.866 1.87 3.95-.247 6.593-.965 8.34-2.265zM238.8 36.299c2.145-.464 4.367-3.04 5.325-4.61 6.752-11.074-8.878-21.875-33.467-21.94-5.53-.015-7.816-.549-7.738 3.729.029 1.608.046 6.427.145 11.935l.18 10.014 8.108 1.478c10.799 1.968 20.587.879 25.72-.232zm-45.749-7.914 3.244-.01-.313-5.02-.313-5.02-5.48-.31c-6.12-.346-5.93-.62-4.879 7.047.531 3.873.822 4.312 2.549 3.848 1.072-.287 3.408-.528 5.192-.534z"/></svg>