<svg height="726.603" viewBox="0 0 129.708 192.247" width="490.234" xmlns="http://www.w3.org/2000/svg"><path color="#000" d="M126.396 1.06c-18.778 4.593-36.942 32.982-44.315 54.534-15.487 1.374-20.34 28.695-20.34 28.695 6.293 3.958 19.21-18.604 19.21-18.604l.429 20.89 10.275-11.43 5.156-.956-1.251 23.032s10.508 8.051 13.37-32.386c5.892-21.533 25.153-39.717 17.466-63.776zm-90.87 104.008a6.768 13.376 0 0 0-6.54 10.1 11.564 9.64 0 0 0-3.05-.341 11.564 9.64 0 0 0-1.63.097 5.573 7.54 0 0 0-5.195-4.806 5.573 7.54 0 0 0-5.48 6.177A10.976 10.936 0 0 0 2.731 127.23a10.976 10.936 0 0 0 10.977 10.936 10.976 10.936 0 0 0 8.056-3.508 10.843 14.007 0 0 0-1.516 7.142 10.843 14.007 0 0 0 10.843 14.007A10.843 14.007 0 0 0 41.936 141.8a10.843 14.007 0 0 0-1.245-6.516 7.507 6.551 0 0 0 4.847-6.126 7.507 6.551 0 0 0-3.725-5.659 6.768 13.376 0 0 0 .502-5.055 6.768 13.376 0 0 0-6.768-13.376 6.768 13.376 0 0 0-.02 0zm54.294 32.698c-11.247 2.163-12.604 8.418-16.809 17.507-7.298-4.375-17.798 1.493-18.326 8.206-2.628 2.842-4.104 6.698-4.104 10.72 0 8.367 6.263 15.15 13.99 15.15 7.01 0 12.937-5.618 13.866-13.14 9.168 1.098 12.613-7.844 7.48-13.514 3.499-.783 5.877-3.08 5.876-5.677 0-2.066-1.515-3.985-4.003-5.07 3.251-4.972 12.62-12.328 2.03-14.182zm-63.827 26.538a6.085 9.571 0 0 0-6.085 9.57 6.085 9.571 0 0 0 2.081 7.208 7.166 7.797 0 0 0-.451 2.722 7.166 7.797 0 0 0 7.166 7.797 7.166 7.797 0 0 0 3.591-1.05 7.886 6.705 0 0 0 5.243 1.696 7.886 6.705 0 0 0 7.886-6.704 7.886 6.705 0 0 0-4.745-6.15 6.957 9.588 20.995 0 0 1.326-2.565 6.957 9.588 20.995 0 0-3.06-11.444 6.957 9.588 20.995 0 0-7.96 3.018 6.085 9.571 0 0 0-4.992-4.098z" fill="#fff" overflow="visible" paint-order="fill markers stroke"/><path d="M125.338 0a6.777 6.777 0 0 0-.565.016C106.925 2.96 87.465 29.69 82.737 48.84c-.41.965-.83 2.65-1.43 5.732-.264 1.352-.711 1.487-1.008.305-4.001-3.298-9.678 2.473-12.246 6.856-1.464 2.222-3.682 6.737-4.056 8.256-.14.573-.866 2.26-1.611 3.75-.745 1.488-1.355 2.932-1.355 3.209 0 .276-.142.652-.315.837-.174.184-.574 1.495-.89 2.912-.914 4.09.211 6.572 2.84 6.265a33.69 33.69 0 0 1 1.812-.159c4.965-1.198 8.399-10.756 13.604-15.65 1.132-1.31 2.244-2.38 2.47-2.377.226.002.808.988 1.293 2.191.983 2.406 2.433 6.292 5.636 5.066 0 0-.102.282-.345.934-1.191 2.4-1.576 3.534-2.892 5.074l-.776 1.315-.277-1.03c-.152-.567-.177-1.348-.055-1.735.327-1.036.22-2.61-.254-3.755-.582-1.407-2.198-1.43-2.743-.039-.88 2.246-1.447 4.973-1.4 6.73.063 2.282 1.13 3.639 3.396 4.318 3.485.857 5.911-4.457 8.65-8.85.456-.675.93-1.645 1.055-2.156.179-.729.602-1.05 1.973-1.499 2.151-.704 2.098-.705 2.101.046.003.34.108 1.562.238 2.716.275 2.453-.136 4.64-1.76 9.367-3.791 11.025-3.77 10.745-.906 11.589 6.341 1.73 9.051-4.06 12.51-8.767a122.521 122.521 0 0 1 1.24-2.504c.72-1.352 3.18-7.393 3.862-9.48.868-2.657 1.058-7.274.387-9.392-.24-.758-.913-1.986-1.496-2.729l-1.06-1.351 1.363-1.996c10.094-15.151 17.795-37.992 19.002-51.073.418-3.758 1.662-11.667-3.956-11.765zm-.605 3.777c.176.013.32.06.428.145 1.562 1.578 1.338 9.415-2.636 23.018-1.737-1.285-7.479-5.071-10.67-6.588-1.492-.7-4.168-1.332-5.601-2.667 5.937-6.568 15.84-14.103 18.48-13.908zM103.56 20.245c1.842-.18-1.454 5.462-5.716 13.547-3.093 4.583-5.756 10.858-8.153 16.531-1.304 2.266-1.668 3.064-2.584 5.671-.428 1.219-.913 2.3-1.08 2.402-.54.335-.624-.969-.233-3.435.702-4.436 2.183-6.827 3.21-9.987 2.678-8.083 7.712-17.383 14.556-24.729zm3.752 1.847c.175-.014.406.055.696.212 6.883 3.025 11.586 6.368 12.641 8.26-.06 1.025-.226 2.18-1.493 4.748-.818 1.316-.72 1.905-.83.96-1.685-4.328-3.71-5.148-5.352-6.075-5.299-2.694-9.49 1.851-11.158 7.183-.24 1.505-1.34-.072-2.317 1.133 0 0 .034-.743.655-1.855 2.03-3.827 6.033-11.396 6.796-14.279.067-.175.187-.273.362-.287zm2.22 10.027a3.056 3.056 0 0 1 1.524.414c-1.974-.31-2.866.665-3.665 1.53-.333.553-.49.741.142 1.373s.629.665-.132 1.17c-1.454.965-.84 2.868 1.257 3.898 1.52.747 2.396.645 3.55-.412 2.139-1.962 2.387-4.867.55-6.366-.664-.543-1.126-.919-.87-.919 1.45.111 2.932 2.524 2.99 3.907-.169 3.592-3.283 7.371-9.245 4.896-3.389-.87-.164-9.475 3.899-9.49zm-.312 3.51c1.185 0 2.789.813 2.292 1.742-.42.777-1.901 1.181-2.4-.297-.927-1.3-.916-1.445.108-1.445zm-11.197 4.94c.265 0 .48.14.48.311 0 .588 1.92.706 2.533.156.535-.48.64-.436 1.11.471 1.086 2.1 3.154 3.032 6.729 3.03 2.066 0 4.5-.732 4.971-1.494.274-.442 1.238-.475 1.238-.042-1.222 6.636-5.855 12.589-9.25 18.35 0 .222-1.434 1.847-3.188 3.61-2.527 2.538-3.283 3.212-4.562 3.319-.707-.063-4.935-1.428-6.008-1.987-.68-.354-2.068-1.072-3.087-1.594-1.018-.522-1.852-1.105-1.852-1.295 0-.35.555-1.699 1.797-4.373 1.799-3.908 3.45-8.538 5.942-12.76l1.054 1.372c.557.614 2.349.71 2.568-.027.754-1.519 1.012-2.16-.733-3.061-.563-.291-1.537-.11-2.174.45-.334-.215 1.967-4.437 2.432-4.437zm-4.419 10.53c-.502.02-.923.198-1.056.544-.353.92-.243 2.447.21 2.9.692.692 1.672.485 2.58-.548 1.046-1.187 1.056-1.32.17-2.205-.477-.478-1.258-.715-1.904-.69zm-15.429 6.384c1.75.02 1.22.085 1.882 0 .305 0 .167 5.589-.164 6.614C78.781 66 77.785 64.055 73 70.183c-.66.873-1.36 1.76-1.557 1.973-.197.212-.993 1.285-1.77 2.384-.775 1.1-2.164 2.97-3.086 4.158-.921 1.187-1.676 2.297-1.676 2.466 0 .17-.159.307-.353.307-.194 0-.351-.119-.35-.264.002-.412 1.477-4.434 3.33-9.084 1.211-3.035 2.822-7.777 7.2-12.26 1.905-1.976 2.488-2.38 3.436-2.38zm12.05 1.232c-1.453.06-2.09 1.728-.753 2.794.255.203.914.362 1.464.353.926-.016 1-.12 1-1.403 0-1.237-.112-1.415-1.043-1.664a2.23 2.23 0 0 0-.669-.08zm-5.48 7.77c.26-.022 1.662.572 3.254 1.385 1.699.866 3.668 1.754 4.377 1.971.708.217 1.523.471 1.81.565 2.024.443-4.308 2.908-6.736 2.79-.796.097-1.447-.305-1.794-1.463-.465-1.667-1.297-2.422-.948-5.236.007-.007.02-.011.037-.012zm22.103 1.144c1.014 2.365 1 6.423-.467 10.844-1.841 5.384-4.48 10.84-7.79 15.31-1.305 1.144-2.282 1.416-2.282.634 0-.253.372-1.245.827-2.205 1.332-2.814 3.087-9.305 3.238-11.975.146-2.596-.416-6.18-1.034-6.596-.426-.286-.52-.192 1.732-1.71 2.075-1.41 3.916-2.472 5.776-4.302zM70.951 94.231c-.339-.003-.9.483-2.05 1.627-3.561 3.564-6.494 8.787-9.41 13.394-4.19 6.125-7.847 14.453-11.337 21.729-.873 1.807-1.587 3.515-1.587 3.797 0 .281-.218.825-.484 1.207-.836 1.202-3.69 8.65-5.165 13.485-.734 2.403-.746 2.613-.201 3.444.433.66.783.834 1.383.683.442-.11 1.074-.241 1.404-.29.833-.122 1.123-.51 1.748-2.338.994-2.908 3.432-9.692 3.74-10.407l.682-1.588c.209-.485.878-2.072 1.488-3.528 1.702-4.036 3.453-7.44 5.195-11.288 1.71-3.87 3.64-7.416 5.465-11.113 2.989-5.051 5.902-10.057 8.184-15.026-.566-1.074 1.997-1.878 1.395-3.286-.123-.32-.246-.5-.45-.502zm7.655 1.144a.671.671 0 0 0-.228.047c-.669.756-2.903 2.947-3.942 4.73 0 .229-.397.937-.882 1.573-1.213 1.602-2.292 3.864-3.518 5.69-.683 1.35-1.392 2.693-1.577 2.984-4.238 6.856-6.601 12.61-10.409 20.99-2.683 5.304-5.04 11.311-7.697 16.934-1.104 2.863-3.319 6.966-4.475 11.127-.156.298-.392 1.337-.526 2.307-.24 1.743-.228 1.771.927 2.297 1.017.462 1.25.466 1.778.027.335-.278.71-.841.835-1.252.124-.411.58-1.224 1.013-1.806.434-.582.992-1.932 1.242-2.999.25-1.067.653-2.337.897-2.822.244-.485.873-2.152 1.4-3.704 4.725-13.833 14.18-31.657 17.463-38.63 1.222-2.448 9.701-17.483 7.699-17.493zm-42.83 7.251c-1.775.03-3.816.442-4.739 1.102-2.263 1.617-3 2.41-4.052 4.36-1.106 2.05-1.55 2.32-2.31 1.406-1.912-2.304-7.056-2.283-10.524.043-.852.571-1.844 1.195-2.205 1.387-.362.191-.662.588-.668.882-.017.794-1.516 1.738-2.934 1.848-3.454.268-8.344 8.32-8.344 13.74 0 1.595.197 2.371.858 3.385 2.323 3.566 7.728 7.744 10.467 8.093 2.726.361 3.095.948 5.924-.25 1.006 0 1.016.019.677 1.322-.67 2.57-.703 3.204-.304 5.779.743 4.797 2.782 7.634 6.391 8.898.86.3 1.593.555 1.629.564.036.01.472-.138.97-.327 1.233-.469 1.141-1.312-.175-1.6-2.019-.444-2.963-1.818-3.85-5.6-.593-2.535-.746-3.953-.578-5.382.26-2.214 1.71-5.934 2.751-7.063 1.193-1.292.729-2.052-1.292-2.11-1.554-.045-1.863.077-2.817 1.112-.632.686-1.68 1.326-2.556 1.56-.816.218-1.568.532-1.671.699-.295.477-3.255.807-3.964.443a52.554 52.554 0 0 0-1.556-.753c-1.232-.572-4.608-3.774-5.747-5.453-1.074-1.582-1.173-3.093-.396-6.074.536-2.06 1.97-5.136 2.87-6.16.375-.426.929-.523 2.252-.396 1.982.19 2.464-.081 3.746-2.111.457-.725 1.696-2.196 2.75-3.268 1.602-1.627 2.124-1.95 3.153-1.95.975 0 1.396.228 2.006 1.084 1.176 1.652 1.726 3.9 1.497 6.12-.254 2.466.158 3.027 2.224 3.027 1.919 0 2.104-.272 3.841-5.645.722-2.231 1.5-4.295 1.732-4.586.23-.29.62-.926.866-1.411 1.121-2.216 3.1-3.725 4.443-3.387 1.094.274 2.65 2.283 3.011 3.887.47 2.085-.591 6.642-1.995 8.56-.451.618-.82 1.293-.82 1.5 0 .206-.16.376-.354.376-.675 0-.347.98.517 1.547 1.325.868 2.576.706 3.77-.488.583-.583 1.137-1.059 1.232-1.059.238 0-.166 1.306-.926 2.998-1.05 2.335-1.151 3.618-.352 4.418.96.96 1.808.875 2.924-.29 1.033-1.078 2.394-5.274 2.484-7.654.048-1.294-.058-1.468-1.286-2.117l-1.34-.707.281-1.763c.155-.97.276-2.955.27-4.41-.01-2.256-.152-2.862-.958-4.117-.94-1.464-2.406-2.725-4.212-3.622-.576-.286-1.545-.405-2.61-.387zm44.637 4.063c-.169-.005-.499.148-1.079.535-1.672 1.134-2.617 2.95-3.751 4.564-3.169 4.65-5.252 8.574-8.573 16.427-1.28 2.602-1.285 2.84-.07 3.433.714.349 1.156.374 1.675.097 3.66-1.969 3.347-5.234 5.676-9.596 2.01-4.087 3.848-8.82 5.691-13.161-.005-.84.938-2.283.431-2.299zm8.409 30.165c-1.625.007-3.379.149-4.278.392-2.544.687-5.867 2.548-7.81 4.374-2.2 2.068-3.347 4.672-4.078 9.26-.255 1.601-.554 2.91-.665 2.907-.11-.002-.98-.24-1.932-.529-1.926-.584-5.881-.702-6.828-.203-.337.177-1.486.673-2.553 1.1-1.74.698-5.121 3.17-6.25 4.57-.237.294-.766 1.234-1.175 2.09-.722 1.505-.726 1.598-.134 2.91.758 1.682 1.614 1.748 2.572.199 1.224-1.981 6.465-6.591 7.521-6.616.256-.007.764-.238 1.13-.515.859-.65 3.402-1.028 4.958-.736.67.126 1.877.778 2.682 1.45.804.673 1.835 1.223 2.29 1.223.456 0 .933.169 1.06.375.36.583 1.647-.746 1.366-1.411-.554-1.311-.74-3.353-.43-4.721.184-.811.405-2.023.493-2.693.47-3.607 4.08-8.09 7.252-9.006a17.829 17.829 0 0 0 1.911-.726c2.915-1.312 6.857-.88 6.857.753 0 1.384-.659 2.612-1.59 2.966-.494.188-1.229.903-1.634 1.59-.406.687-1.025 1.404-1.378 1.592-.352.189-.691.695-.753 1.125-.08.545-.433.847-1.172.998-1.677.343-2.726 1.03-2.494 1.636.38.99 1.783 2.543 2.318 2.565.291.012.984.26 1.54.55.555.289 1.15.526 1.322.526.172 0 .638.325 1.035.723.656.656.68.842.27 2.028-.62 1.783-2.963 4.056-4.974 4.824-.914.35-1.663.833-1.663 1.074 0 .46 2.19 2.288 2.74 2.288.71 0 1.24 1.76 1.04 3.449-.29 2.452-1.13 3.944-3.074 5.458-1.57 1.223-3.528 1.78-3.528 1.002 0-.444-2.86-3.128-4.203-3.945-1.243-.756-2.034-.832-3.37-.325-.895.341-.903.368-.317 1.263.33.503 1.467 1.774 2.526 2.826 1.873 1.858 1.92 1.953 1.699 3.411-.373 2.45-2.535 5.91-3.693 5.91-.221 0-.403.134-.403.298 0 .362-5.12 2.795-6.35 3.018-.485.088-1.538.172-2.34.186-1.279.023-1.48.138-1.632.938-.143.746-.06.882.463.745.35-.091 1.158-.06 1.793.07 3.379.69 9.805-.761 12.236-2.764 2.38-1.961 4.068-4.495 4.473-6.717.33-1.808.422-1.939 1.411-2.01.582-.042 1.614-.191 2.294-.331.679-.14 1.353-.228 1.499-.195.145.033.264-.089.264-.27 0-.18.322-.43.714-.555 1.182-.375 3.41-3.69 3.993-5.936.456-1.76.465-2.286.06-3.633-.261-.866-.724-1.956-1.029-2.421-.539-.822-.511-.877.941-1.924 4.27-3.08 4.37-7.385.238-10.355-.729-.524-1.558-.952-1.843-.952-.285 0-.707-.228-.939-.507-.342-.412-.105-.842 1.265-2.293.927-.982 1.884-1.786 2.127-1.786.402 0 2.284-1.762 3.678-3.444 1.639-1.978.908-4.072-1.993-5.709-1.124-.634-2.452-1.215-2.952-1.291-.67-.102-1.599-.147-2.574-.143zM25.76 161.697c-1.835.045-3.504.932-5.095 2.693-1.34 1.483-3.016 4.622-3.023 5.658-.002.308-.112.668-.245.8-.133.134-.305 1.332-.381 2.663-.115 1.984.002 2.697.64 3.95 1.596 3.128 4.096 5.432 7.52 6.932 1.124.492 2.348.585 2.328.178-.007-.146-1.19-1.518-2.63-3.05-3.927-4.179-4.707-6.48-3.5-10.318.737-2.343 3.823-6.3 4.912-6.3 1.213 0 1.971 1.952 1.992 5.128l.019 2.882 1.48.655c.814.36 1.792.573 2.174.473.39-.102 1.16-1.057 1.747-2.166.578-1.092 1.35-2.154 1.715-2.362.366-.207 1.033-.733 1.483-1.17.817-.792 1.73-1.03 2.022-.53.457.786-1.647 9.017-2.597 10.162-.688.828-.558 3.269.205 3.845.933.706 3.385.68 4.917-.05.952-.454 1.48-.513 2.217-.247.82.296.952.526.873 1.509-.052.638-.488 1.676-.97 2.308-.482.632-.877 1.294-.877 1.471 0 .177-.584.797-1.297 1.378-2.64 2.149-3.193 3.044-2.142 3.468 1.654.668 4.374-.29 6.461-2.277.595-.566 1.186-.925 1.314-.796.129.128.332-.068.453-.435.12-.367.6-1.404 1.066-2.303a7.3 7.3 0 0 0 .848-3.422c0-1.622-.112-1.871-1.216-2.714-1.205-.919-4.534-1.668-5.865-1.32-1.033.27-1.071-.475-.15-2.964 1.02-2.755 1.439-5.987 1.082-8.365-.215-1.432-.41-1.72-1.556-2.305-1.318-.673-3.837-1.05-4.475-.67-.19.113-.897.324-1.573.47-.676.145-1.593.502-2.038.793-.73.478-.875.468-1.504-.1-.384-.348-.698-.805-.7-1.017-.003-.58-2.098-1.868-3.741-2.3a6.777 6.777 0 0 0-1.893-.235z" fill="#030303"/></svg>