<svg height="398.849" viewBox="0 0 107.218 105.529" width="405.233" xmlns="http://www.w3.org/2000/svg"><path d="M.808 13.845C1.115 8.04 1.236 1.52 10.893.315c9.658-1.204 73.648 1.468 79.56.987 5.913-.482 14.232 1.613 15.276 9.702 1.043 8.09.7 74.35 1.209 78.708.508 4.357 1.418 16.42-8.56 15.793-9.98-.626-80.925-.553-88.71-.674-7.785-.12-9.47-2.528-9.631-11.87-.16-9.34.222-68.779.77-79.116z" fill="#fff" paint-order="markers stroke fill"/><path d="M53.849 100.542c-.282-.28-.512-1.599-.512-2.93 0-3.106-1.508-3.163-1.864-.07-.16 1.398-.788 2.348-1.551 2.348-.837 0-1.27-.815-1.247-2.348.026-1.585-.405-2.349-1.315-2.349-.906 0-1.337.762-1.314 2.325.018 1.548-.467 2.426-1.461 2.625-1.165.233-1.495-.28-1.495-2.325 0-2.027-.377-2.625-1.655-2.625-1.27 0-1.618.539-1.495 2.315.111 1.6-.3 2.41-1.334 2.624-1.206.251-1.494-.29-1.494-2.804 0-2.51-.29-3.057-1.494-2.817-.997.199-1.405.933-1.227 2.204.166 1.171-.279 2.116-1.153 2.452-1.713.657-3.106-1.236-2.454-3.333.34-1.094-.013-1.495-1.316-1.495-1.492 0-1.692.36-1.225 2.22.467 1.862.298 2.166-1.051 1.886-1.075-.222-1.54-.959-1.405-2.22.186-1.722-.464-2.239-2.102-1.672-.34.117-.5 1.112-.356 2.211.203 1.55-.09 1.926-1.304 1.678-1.136-.233-1.498-.957-1.32-2.639.212-2-.064-2.317-2.014-2.317-1.995 0-2.196.254-1.714 2.173.3 1.196.307 2.56.019 3.031-.843 1.364-2.94-.878-2.94-3.145 0-2.126-2.186-3.768-5.016-3.768-2.88 0-2.995-1.733-.186-2.794 3.212-1.212 3.424-2.33.443-2.33-2.803 0-2.554-2.857.285-3.262 2.313-.33 2.567-1.861.31-1.861-.883 0-2.079-.572-2.659-1.271-1.096-1.32-1.184-1.245 2.98-2.545 2.268-.709 1.365-2.162-1.343-2.162-3.77 0-3.141-2.885.71-3.257 3.504-.339 3.574-1.493.133-2.18-3.67-.735-2.749-2.425 2.063-3.784 2.938-.83 3.989-1.55 3.989-2.735 0-2.62 1.41-2.714 3.064-.206l1.542 2.34.496-2.07c.703-2.941 2.27-3.119 3.685-.419l1.213 2.313.625-2.474c.792-3.815 3.257-2.849 3.664-.092.505 3.43 2.35 2.55 2.92-.603.455-2.51 2.302-2.593 2.92-.131.655 2.61 2.545 2.9 3.176.488.77-2.944 3.749-1.971 3.27 1.067-.058.352.237.64.653.64.898 0 1.562-2.98 1.795-6.058.169-2.215-.77-2.28-11.186-3.152l-11.2-.937-2.113 2.512c-2.529 3.006-6.25 3.347-8.793.804-2.381-2.381-2.132-4.832.788-7.752 2.992-2.992 5.451-3.167 8.039-.574 1.86 1.863 2.225 1.9 12.13 1.235 16.251-1.092 17.472-.476 17.472 8.814 0 3.82.291 5.155 1.068 4.898.756-.25 1.2-3.824 1.521-12.24.25-6.539.304-12.368.122-12.955-.24-.774-3.062-1.068-10.251-1.068-9.221 0-9.786.094-8.022 1.33 2.676 1.873 2.552 5.889-.237 7.715-1.977 1.297-2.292 1.297-4.269 0-2.505-1.64-2.597-2.617-.773-8.194 1.696-5.184 2.817-5.508 16.149-4.675 7.333.458 9.827.913 10.19 1.859.264.688.73 7.465 1.034 15.059.419 10.455.843 13.978 1.745 14.51.71.42.98 1.37.67 2.35-.336 1.057-.12 1.64.603 1.63 3.108-.038 3.468-1.371 4.17-15.463.61-12.228.527-14.15-.666-15.47-1.25-1.381-1.236-1.645.183-3.213 2.224-2.457 5.36-2.207 6.606.527.877 1.925.786 2.43-.659 3.63-1.559 1.296-1.66 2.363-1.443 15.162.13 7.661-.141 14.754-.612 15.992-.639 1.68-1.795 2.465-4.717 3.2-2.426.611-3.872 1.45-3.872 2.248 0 1.043 1.149 1.215 6.347.953 3.492-.177 6.662-.635 7.046-1.017.384-.384.829-4.267.99-8.63.222-6.032-.032-8.564-1.067-10.563-1.78-3.44-1.716-4.572.38-6.823 1.96-2.102 4.11-2.384 6.123-.801 2.5 1.965 2.597 4.526.276 7.285-2.05 2.436-2.161 3.098-2.161 12.802 0 7.445-.308 10.489-1.13 11.17-.62.516-4.56 1.05-8.753 1.188-7.066.23-7.602.372-7.33 1.942.163.931.36 1.763.44 1.848.3.321 17.714-1.388 18.388-1.805.618-.382 1.519-9.01 2.056-19.7.16-3.167.368-3.434 2.874-3.677 3.383-.328 4.708 2.432 2.395 4.988-1.215 1.342-1.436 3.2-1.313 10.995.206 12.898.218 12.887-14.032 12.887-9.73 0-10.675.137-10.675 1.545 0 .85-.564 2.29-1.254 3.203-.69.911-1.266 2.673-1.28 3.914-.027 2.136-1.827 3.772-2.933 2.666zm.343-19.916c0-5.14.096-9.633.213-9.985.118-.353-6.704-.892-15.158-1.2-8.455-.307-17.147-.794-19.316-1.082l-3.945-.523.102 10.903.101 10.902 19.002.165 19 .164zM16.189 53.288c0-.66-.672-1.328-1.494-1.486-1.472-.284-2.08 1.528-.908 2.701.896.896 2.402.133 2.402-1.215zM31.988 43.1a.857.857 0 0 0-.854-.855.857.857 0 0 0-.854.855c0 .469.384.853.854.853s.854-.384.854-.853zm54.655 50.015c0-.673.769-1.468 1.708-1.765 1.244-.395 1.708-1.292 1.708-3.303 0-1.518-.38-3.142-.846-3.606-2.602-2.602-1.897-17.248.967-20.112 1.138-1.14 1.602-2.575 1.424-4.414-.225-2.324-.64-2.766-2.826-3.004-1.409-.154-2.946-.66-3.416-1.125-1.263-1.251 1.932-3.293 5.155-3.293 3.761 0 5.52 2.267 5.52 7.113 0 2.91.484 4.473 1.788 5.777 1.612 1.611 1.758 2.585 1.494 9.897-.26 7.186-.512 8.286-2.214 9.665-1.226.99-1.922 2.49-1.922 4.132 0 1.417-.604 3.181-1.342 3.92-1.728 1.727-7.198 1.818-7.198.118zM95.098 72.4c.082-5.115-.905-7.302-2.552-5.655-1.31 1.31-1.147 13.174.193 14.01 1.54.959 2.25-1.553 2.359-8.355zM83.991 47.06c-2.366-1.175-3.106-4.303-1.481-6.261 1.179-1.42-.67-3.393-15.104-16.1-5.037-5.55-11.302-4.625-18.887-4.741-13.652-.21-13.664-.274-20.686 5.694-5.401 4.59-6.946 6.399-6.946 8.128 0 4.599-6.002 6.733-9.394 3.34-1.907-1.906-2.137-3.582-.824-6.034.678-1.266 1.802-1.652 4.825-1.652 3.809 0 4.159-.227 10.431-6.771C33 15.742 32.752 15.55 40.84 15.295c4.633-.327 11.342-.33 14.908-.005 5.922.537 6.969.933 12.072 4.573 7.262 5.181 18.823 15.38 19.446 17.154.266.764 1.269 2.258 2.227 3.322 3.398 3.775-.89 9.016-5.502 6.725zm2.652-3.961a.857.857 0 0 0-.854-.855.857.857 0 0 0-.854.855c0 .469.385.853.854.853.47 0 .854-.384.854-.853zm-70.454-9.454c0-.66-.672-1.328-1.494-1.486-1.472-.283-2.08 1.529-.908 2.702.896.895 2.402.132 2.402-1.216zm21.29-3.612c-1.651-.924-1.549-5.24.159-6.658.98-.814 4.342-1.154 11.597-1.172 9.144-.027 10.343.146 11.43 1.63 1.492 2.04 1.525 3.164.145 4.944-.856 1.104-3.154 1.433-11.588 1.658-5.786.155-11.07-.026-11.742-.402zm14.88-2.855c2.887-.302 5.247-.782 5.245-1.068 0-.285-4.036-.537-8.966-.56-4.93-.027-8.964.201-8.964.498 0 1.805 3.36 2.105 12.684 1.13zm40.638 1.018c-.754-1.152-1.14-2.827-.855-3.722.396-1.247-.74-2.713-4.84-6.247-2.945-2.54-5.952-5.076-6.681-5.636-.82-.63-6.024-1.174-13.664-1.425-6.786-.224-16.95-.663-22.586-.975l-9.589-.53c-1.731-.097-4.778 2.825-6.85 4.904-3.077 3.085-6.192 5.395-6.192 5.947 0 .554-.797 2.02-1.77 3.257-3.28 4.17-9.331 2.312-9.331-2.865 0-1.867.708-2.87 3.05-4.318 2.6-1.606 3.382-1.736 5.27-.876 2.085.95 2.4.528 7.836-4.522 2.26-2.1 4.743-5.614 6.84-5.566l43.502.927c2.355-.167 2.922.137 4.736 1.407 2.72 1.903 9.658 7.698 11.974 9.855 2.316 2.158 4.909 4.144 5.76 4.414.853.27 1.788 1.442 2.08 2.604 1.206 4.806-5.934 7.572-8.69 3.367zm4.32-3.031c-.29-.47-.889-.855-1.33-.855-.443 0-.804.385-.804.855s.599.854 1.331.854c.733 0 1.094-.385.804-.854zm-80.7-5.175c0-.442-.816-.803-1.813-.803-1.509 0-1.635.213-.757 1.272 1.066 1.284 2.57 1.01 2.57-.469z"/></svg>