<svg width="32" height="32" style="enable-background:new 0 0 32 32" xml:space="preserve" xmlns="http://www.w3.org/2000/svg"><path d="M5 14.016V30.5h12.042v-7.923a3.333 3.333 0 1 1 6.667 0V30.5H27V14.016H5zm8.554 6.734h-4a1 1 0 0 1 0-2h4a1 1 0 1 1 0 2z" style="fill:#00bbb4"/><path d="M31 31.5H1a1 1 0 0 1 0-2h30a1 1 0 0 1 0 2z" style="fill:#1b75bc"/><path d="M5.225 12.531c-3.01 0-5.053-3.06-3.897-5.84L3.9.5h6.666L9.405 8.89a4.22 4.22 0 0 1-4.18 3.641zm10.93 0h-.31a4.22 4.22 0 0 1-4.18-4.8L12.667.5h6.666l1.002 7.232a4.22 4.22 0 0 1-4.18 4.8zm10.62 0a4.22 4.22 0 0 1-4.18-3.64L21.433.5h6.666l2.573 6.191c1.156 2.78-.887 5.84-3.897 5.84z" style="fill:#f15a29"/></svg>