<svg width="750" height="750" fill="none" xmlns="http://www.w3.org/2000/svg"><path fill="transparent" d="M0 0h750v750H0z"/><path d="M289.815 572.157c142 24.5 215.276-24.542 215.649-26 3.975-2.34 7.987-4.653 11.75-7.308 5.988-4.225 11.822-8.671 17.642-13.128 2.869-2.196 5.672-4.506 8.294-6.988 1.883-1.783 3.274-4.084 5.135-5.896 4.274-4.159 8.869-7.997 13.029-12.263a924.947 924.947 0 0 0 22.022-23.358c5.816-6.395 11.419-12.991 16.955-19.633 3.848-4.615 7.427-9.455 11.116-14.202 3.071-3.952 6.403-7.737 9.118-11.922 3.209-4.946 6.016-10.171 8.746-15.407 2.811-5.389 5.56-10.836 7.896-16.44 2.797-6.709 6.541-13.09 6.84-20.717.243-6.188 1.313-12.341 1.671-18.53.421-7.275-.446-14.495-1.743-21.657-1.12-6.184-2.723-12.264-5.765-17.767a216.624 216.624 0 0 0-10.418-16.962c-4.477-6.583-9.824-12.392-16.339-17.132-6.082-4.424-12.708-7.746-19.618-10.542-6.462-2.613-13.038-4.939-19.525-7.493-3.722-1.465-7.341-3.189-11.048-4.694-6.01-2.438-12.117-4.648-18.07-7.215-9.282-4.003-17.502-9.521-24.276-17.18-4.411-4.987-9.204-9.64-13.879-14.391-4.6-4.674-9.31-9.241-13.884-13.941-1.92-1.973-3.453-4.335-5.444-6.223-2.944-2.792-6.102-5.365-9.238-7.947-3.1-2.554-6.025-5.473-9.488-7.403-7.658-4.27-15.259-8.7-23.806-11.2-7.423-2.171-14.651-4.805-22.38-6.083-7.983-1.32-15.909-2.542-24.004-2.532-10.38.012-20.761-.026-31.14.023-2.553.012-5.138.069-7.65.468a643.017 643.017 0 0 0-20.248 3.568c-5.371 1.033-10.708 2.244-16.046 3.439l-.188.042c-3.892.871-7.788 1.742-11.634 2.792-6.698 1.827-13.371 3.757-20.032 5.718-9.099 2.678-17.179 7.921-26.407 10.373-4.913 1.305-9.644 3.37-14.359 5.328-8.092 3.36-16.132 6.85-24.144 10.397-3.727 1.649-7.221 3.877-11.026 5.286-7.67 2.838-14.827 6.629-21.603 11.106-5.557 3.672-10.749 7.891-16.255 11.645-7.694 5.246-15.006 10.908-20.837 18.237-4.175 5.248-8.564 10.395-12.117 16.052-5.021 7.993-9.62 16.282-13.915 24.691-4.014 7.862-7.481 16.009-11.027 24.102-2.324 5.306-4.639 10.647-6.451 16.14-2.109 6.396-3.49 13.03-5.514 19.458-1.618 5.14-2.214 10.347-2.156 15.671.015 1.433.392 2.862.41 4.296.179 13.977.277 27.955.502 41.931.041 2.494.485 4.993.877 7.468.686 4.33 1.444 8.65 2.234 12.962.659 3.599 1.113 7.271 2.172 10.754 3.043 10.007 6.956 19.684 12.162 28.781a562.087 562.087 0 0 0 10.633 17.77c1.136 1.824 2.768 3.336 4.145 5.014 2.787 3.396 4.953 6.33 8.368 10.179 40.35 45.487 97.481 50.384 144.308 58.463Z" fill="#5B60FD"/><path d="M90.759 444.83c-2.891-6.804-5.16-13.552-6.327-20.692-.928-5.673-2.45-11.246-3.486-16.904-.556-3.04-.545-6.179-.963-9.251-.72-5.281-1.572-10.544-2.372-15.814-.394-2.599-.912-5.186-1.17-7.798-.94-9.497-1.681-19.007-1.368-28.566.165-5.041-.025-10.12.533-15.116.706-6.326 2.06-12.577 3.037-18.876.688-4.443 1.055-8.94 1.845-13.363 1.336-7.492 3.626-14.698 7.492-21.305 1.698-2.903 3.625-5.674 5.471-8.49 1.248-1.902 5.156-3.566 6.838-3.207 2.311.493 3.146 2.193 2.939 4.074-.4 3.637-1.002 7.293-1.966 10.819-1.993 7.29-4.53 14.438-6.359 21.765-1.334 5.343-1.922 10.874-2.793 16.33a1884.473 1884.473 0 0 0-3.126 20.21c-.266 1.787-.377 3.605-.454 5.413-.186 4.417-.292 8.838-.466 13.256-.115 2.926-.523 5.86-.396 8.774.307 7.064.794 14.122 1.318 21.175.343 4.602.785 9.2 1.354 13.779.453 3.654 1.17 7.275 1.762 10.912.603 3.709 1.058 7.449 1.834 11.122.703 3.329 1.655 6.615 2.667 9.867 2.632 8.463 5.3 16.916 8.066 25.335 2.071 6.304 4.333 12.544 6.477 18.823.944 2.764.353 4.378-1.775 4.388-1.696.007-3.067-1.071-3.817-2.685-.639-1.376-1.171-2.801-1.806-4.18-2.975-6.46-6.03-12.884-8.93-19.377-1.49-3.337-2.715-6.792-4.06-10.418ZM609.794 212.929c-6.026 1.493-11.792 3.16-17.645 4.422-4.167.899-8.529 2.048-12.666 1.649-5.124-.493-10.56 1.064-15.386-1.625-3.176-1.771-6.281-3.719-9.212-5.868-5.474-4.014-9.076-9.561-12.033-15.562-3.185-6.463-5.193-13.317-6.512-20.368-.501-2.676-1.01-5.445-.84-8.129.256-4.031 1.048-8.033 1.718-12.029.831-4.962 2.585-9.628 4.676-14.189 2.875-6.27 8.028-10.398 13.415-14.245 6.306-4.502 13.195-8.03 20.609-10.226 4.378-1.297 9.022-1.764 13.577-2.384 8.805-1.199 17.335 1.017 25.692 3.078 11.975 2.954 18.837 11.737 22.291 23.096 1.892 6.221 2.836 12.735 4.112 19.136.705 3.539 1.514 7.101 1.717 10.684.165 2.911-.287 5.912-.848 8.798-1.097 5.65-3.501 10.804-6.665 15.597-2.582 3.91-6.28 6.706-9.821 9.639-4.731 3.919-10.315 6.284-16.179 8.526ZM631.784 256.071c-1.431-1.88-2.994-3.524-3.976-5.463-.556-1.096-.543-2.818-.104-4.007.776-2.106 2.993-1.984 4.602-1.517 1.682.487 3.33 1.572 4.641 2.778a116.08 116.08 0 0 1 18.328 21.52c4.404 6.675 7.846 13.937 9.07 21.971.8 5.246 1.503 10.534 1.772 15.828.502 9.87.891 19.758.883 29.638-.007 8.389-1.422 16.616-4.849 24.39-1.129 2.561-4.916 5.866-8.084 5.682-2.491-.145-4.918-1.955-4.853-4.427.094-3.595.521-7.194 1.013-10.762.569-4.134 1.419-8.228 2.04-12.356.533-3.535 1.226-7.086 1.292-10.64.109-5.906.124-11.857-.48-17.72-.569-5.514-1.847-10.973-3.072-16.397-1.45-6.424-2.963-12.889-6.27-18.667-3.811-6.658-7.882-13.166-11.953-19.851ZM131.677 232.322c-1.83 2.076-3.624 3.979-5.25 6.016-4.022 5.038-7.955 10.146-11.951 15.205-1.167 1.478-2.773 2.411-4.551 1.519-1.764-.884-1.521-2.836-1.425-4.507.224-3.865 2.193-7.089 4.339-10.056 4.504-6.227 9.244-12.306 14.856-17.598 5.866-5.532 12.036-10.69 18.787-15.164 3.634-2.408 7.129-4.963 11.519-5.73.97-.17 2.701-.095 2.913.384.42.948.448 2.563-.122 3.355-1.241 1.725-2.886 3.189-4.496 4.612-2.811 2.484-5.784 4.787-8.574 7.293-5.353 4.806-10.627 9.701-16.045 14.671Z" fill="#5B60FD"/><path d="M607.098 529.225c-1.936 6.214-4.198 12.227-5.485 18.442-1.974 9.526-6.124 18.341-8.395 27.743-.194.803-.547 1.601-.547 2.401 0 .322.732.868 1.172.914.749.078 1.529-.23 2.299-.253 5.691-.168 11.383-.38 17.076-.407 1.646-.008 3.313.475 4.928.897.32.083.707.972.615 1.391-.531 2.418-1.181 4.811-1.832 7.201-.104.384-.368.98-.634 1.024-2.833.475-2.468 2.956-2.837 4.751-1.04 5.059-1.798 10.176-2.718 15.261a413.775 413.775 0 0 1-2.222 11.473c-.448 2.126-2.27 2.605-4.03 2.62-8.923.076-17.851.152-26.771-.041-2.464-.053-3.84-1.488-4.177-3.619-.938-5.931-2.028-11.837-3.067-17.752-.58-3.297-1.15-6.597-1.783-9.885-.233-1.203-.814-2.121-2.317-1.866-2.343.396-3.553-.621-4.003-2.962-.36-1.873-1.17-3.654-1.606-5.517-.477-2.038.384-3.014 2.462-3.019 4.057-.011 8.114-.061 12.17.014 3.554.065 7.109.227 10.657.454 1.174.075 1.43-.376 1.233-1.354-.177-.879-.243-1.833-.645-2.605-2.69-5.16-5.356-10.339-8.249-15.386-1.184-2.065-2.812-3.909-4.418-5.691a603.26 603.26 0 0 0-11.576-12.465c-1.443-1.515-3.109-2.816-4.643-4.247-1.192-1.112-2.446-.715-3.619-.117-6.821 3.474-13.494 2.613-19.727-1.202-2.237-1.37-4.017-3.793-5.464-6.078-2.191-3.458-3.719-7.333-5.878-10.815-2.1-3.385-4.27-6.867-7.059-9.656-6.488-6.487-14.481-10.712-23.292-13.074-3.924-1.051-8.054-.163-12.016.92-3.63.993-7.274.842-11.023.38-7.054-.868-13.139-4.014-18.958-7.665-4.354-2.731-6.784-6.788-7.399-12.204-.479-4.219.437-7.804 2.869-10.881 2.405-3.042 5.215-5.829 9.225-6.967 3.417-.969 6.763-2.186 10.153-3.253.597-.188 1.255-.247 1.885-.25 4.647-.02 9.313-.284 13.936.051 7.775.563 15.59 1.127 22.609 5.211 2.166 1.261 4.617 2.023 6.885 3.123.505.244.788.946 1.174 1.438-.622.01-1.316.206-1.854-.001-3.496-1.349-7.106-2.509-10.394-4.265-4.049-2.162-8.426-2.399-12.749-2.846-4.333-.448-8.722-.356-13.086-.51-6.783-.239-13.167 1.271-19.347 4.046-4.361 1.958-7.27 5.07-8.616 9.584-1.513 5.073.403 11.616 5.088 15.21 4.714 3.617 10.174 5.518 15.595 7.249 4.747 1.515 9.931 1.743 14.904.192 6.118-1.908 11.882-.658 17.662 1.549 6.139 2.343 11.9 5.361 16.699 9.809 2.727 2.528 5.03 5.629 7.049 8.776 3.301 5.146 6.215 10.541 9.291 15.831 2.341 4.026 6.428 4.979 10.485 6.126 3.646 1.031 6.886-.248 10.135-1.424.97-.351 2.007-1.266 2.443-2.191.953-2.026 1.967-4.182 2.191-6.363a38.16 38.16 0 0 0-1.014-13.478c-.84-3.246-1.541-6.608-2.958-9.609-2.998-6.35-6.445-12.441-12.285-16.818-2.162-1.62-3.897-3.809-5.827-5.739-3.129-3.129-6.288-6.23-9.356-9.418-.465-.484-.507-1.376-.745-2.08.661.241 1.351.423 1.969.744.375.194.634.608.951.916 4.893 4.747 9.484 9.867 14.761 14.139 5.908 4.785 9.353 11.168 12.681 17.582 1.823 3.513 2.396 7.737 3.178 11.71.602 3.063.945 6.243.856 9.355-.075 2.601-.876 5.196-1.485 7.763-.323 1.364-.294 2.412.812 3.494a912.333 912.333 0 0 1 14.527 14.521c1.59 1.628 2.867 3.559 4.416 5.232 3.645 3.939 5.861 8.691 7.934 13.538.134.314.229.679.456.909.315.32.736.535 1.112.795.067-.415.257-.854.182-1.241-1.635-8.396-3.192-16.811-6.162-24.881-.991-2.692-1.767-5.462-2.709-8.173-.415-1.194-1.367-2.025-2.616-1.491-2.422 1.036-4.536.061-6.659-.752-4.233-1.62-6.82-4.826-8.15-9.063-.199-.634.169-1.446.274-2.175.419.522.964.986 1.236 1.576 2.398 5.187 6.308 9.056 12.687 8.619 1.2-.082 1.765-.424 1.346-1.723-2.261-7.017-4.399-14.079-7.826-20.656a4688.188 4688.188 0 0 1-8.394-16.216c-.187-.362-.471-.789-.414-1.136.131-.793.446-1.555.687-2.329.497.604 1.131 1.139 1.47 1.822 2.916 5.87 5.493 11.93 8.741 17.606 2.902 5.071 4.453 10.565 6.316 15.983.446 1.297.7 2.658 1.137 3.958.121.361.584.606.89.905.25-.258.55-.483.741-.778 2.955-4.541 3.435-9.41 2.639-14.738-.984-6.58-3.596-12.478-6.222-18.468-2.471-5.637-5.345-11.018-8.952-15.97-2.241-3.078-4.393-6.458-8.315-7.719-4.847-1.559-9.458-1.031-13.47 2.302-3.234 2.687-2.477 4.55-.199 7.422.774.976 1.779 1.765 2.628 2.687.258.28.346.717.512 1.082-.451.087-1.083.41-1.327.225-2.49-1.9-5.741-3.424-6.233-6.803-.506-3.478 1.787-6.103 4.676-7.583 3.87-1.983 7.968-2.795 12.506-1.715 5.542 1.32 8.554 5.507 11.373 9.559 5.884 8.457 9.808 17.945 13.531 27.56 2.033 5.25 2.353 10.449 1.907 15.724-.223 2.636-1.68 5.442-3.33 7.596-1.309 1.71-1.465 2.968-.879 4.794 1.946 6.059 3.849 12.132 5.656 18.233.397 1.34.282 2.826.511 4.226.067.409.51.756.781 1.131.172-.388.484-.773.492-1.164.047-2.36-.091-4.727.053-7.079.165-2.688.492-5.374.913-8.034.084-.535.905-.954 1.386-1.426.404.697 1.178 1.414 1.144 2.088-.112 2.174-.594 4.326-.798 6.498a106.47 106.47 0 0 0-.444 7.339c-.075 2.974.035 5.952-.037 8.926-.047 1.933-.282 3.86-.42 5.792a24.2 24.2 0 0 0-.07 1.96c.004.492.076.983.118 1.475.425-.442 1.101-.821 1.231-1.337.478-1.885.595-3.873 1.174-5.72 1.348-4.298 2.887-8.537 4.344-12.801.53-1.552 1.226-3.075 1.515-4.671.291-1.608.267-3.124-1.209-4.562-2.124-2.067-3.931-4.497-5.639-6.935-.668-.953-.829-2.33-1.005-3.545-1.372-9.503-.853-19.071-.863-28.617-.001-1.796.619-3.584.809-5.39.077-.736.036-1.741-.396-2.234-3.778-4.305-5.818-9.461-7.653-14.773-1.803-5.219-4.118-10.275-5.685-15.558-1.764-5.946-3.015-12.05-4.354-18.115-1.004-4.549-1.802-9.144-2.666-13.723-.094-.498.006-1.031-.015-1.546-.291-6.885-.401-13.784-.929-20.651-.692-8.986.34-17.729 3.083-26.262 1.628-5.063 3.186-10.21 5.482-14.978 2.222-4.615 5.316-8.963 10.527-10.677 2.08-.684 4.544-.484 6.799-.289 4.006.347 7.774 1.483 10.324 4.936 2.273 3.08 3.938 6.358 4.658 10.262.662 3.59 2.514 6.946 3.365 10.518 1.146 4.808 1.856 9.721 2.715 14.596.91 5.161 1.665 10.351 2.69 15.489 1.204 6.039 2.661 12.027 3.919 18.056.202.97.332 1.33 1.088.482 1.672-1.873 3.775-2.663 6.206-3.236 2.139-.504 3.993-2.137 6.12-2.793 2.902-.896 5.936-1.377 8.929-1.956 1.319-.255 2.675-.331 4.018-.457 4.874-.46 9.073 1.241 12.921 4.058 3.282 2.402 6.713 4.626 9.819 7.237 5.004 4.208 7.601 10.033 10.329 15.827 1.733 3.68 2.813 7.454 2.905 11.374.085 3.643-2.126 6.731-3.786 9.895-1.257 2.394-2.762 4.42-5.313 5.626-3.573 1.688-7.952.972-10.793-1.629-3.231-2.958-5.619-6.524-7.626-10.351-1.132-2.158-2.302-4.178-4.52-5.415-.335-.187-.413-.835-.61-1.269.429-.132.879-.424 1.282-.368 2.576.36 3.673 2.504 4.886 4.366 1.878 2.885 3.277 6.123 5.404 8.794 3.688 4.632 7.949 6.525 12.986 2.518 2-1.591 3.011-4.557 4.177-7.036 3.204-6.81.627-12.866-2.757-18.749-1.476-2.566-2.836-5.227-4.57-7.61-3.264-4.486-7.655-7.675-12.277-10.742-5.036-3.342-10.347-4.319-16.121-3.86-4.665.371-9.204 1.244-13.183 3.959-.502.342-1.073.667-1.656.794-5.939 1.29-8.988 6.166-12.673 10.221-2.013 2.215-4.013 4.477-5.716 6.928-2.802 4.036-5.855 8.012-7.909 12.429-3.711 7.98-7.136 16.158-8.904 24.838-1.066 5.233-1.5 10.593-2.29 15.885-.328 2.197-.886 4.359-1.252 6.552-.144.858-.103 1.76-.046 2.636.103 1.589.371 3.172.41 4.762.07 2.826-.324 5.709.105 8.47.563 3.616.133 7.545 2.261 10.754 1.159 1.747 2.882 3.14 4.444 4.593.87.809 1.339.881 1.691-.707 1.07-4.829 2.485-9.58 3.734-14.37 2.137-8.189 4.183-16.403 6.418-24.565.588-2.149 1.711-4.153 2.612-6.214 4.81-10.989 9.565-22.002 14.472-32.948 2.009-4.484 4.362-8.814 6.533-13.227.571-1.161.903-2.468 1.626-3.513.345-.499 1.35-.541 2.056-.789.046.608.332 1.336.098 1.804-2.02 4.037-4.327 7.94-6.178 12.05-3.386 7.517-6.477 15.166-9.776 22.723-1.556 3.562-3.246 7.069-4.987 10.546-3.309 6.608-5.657 13.504-6.999 20.791-.707 3.839-1.991 7.572-2.986 11.36-.114.431-.042.911-.167 1.478Zm-34.853-96.59c.885 6.638 1.365 13.363 2.762 19.891a186.756 186.756 0 0 0 6.187 22.195c2.658 7.644 6.083 15.022 9.193 22.507.159.383.509.686.769 1.026.188-.438.448-.86.551-1.318 1.029-4.59 1.736-9.279 3.12-13.758 1.607-5.198 3.885-10.184 5.723-15.315 2.572-7.183 7.003-13.21 11.758-19 2.266-2.759 5.001-5.138 7.576-7.635.988-.957 1.466-1.855.723-3.207-.352-.641-.396-1.456-.563-2.195-1.183-5.262-2.424-10.511-3.52-15.791-.709-3.417-1.236-6.874-1.782-10.323-.494-3.125-.683-6.315-1.393-9.387-1.783-7.716-3.722-15.398-5.724-23.061-1.035-3.963-2.901-7.671-6.466-9.801-2.036-1.217-4.746-1.326-7.168-1.861-1.098-.243-2.346-.69-3.334-.397-5.7 1.692-9.318 5.92-11.68 11.014-2.056 4.435-3.44 9.202-4.883 13.895-1.698 5.525-2.88 11.153-2.76 17.009.118 5.748-.063 11.503.066 17.251.059 2.611.55 5.212.845 8.261Zm36.512 166.184c-6.338 0-12.676.024-19.014-.035-.672-.007-1.339-.507-2.008-.778.695-.319 1.387-.906 2.086-.915 5.968-.073 11.938-.043 17.908-.04.508.001 1.222-.177 1.492.086 2.031 1.972 1.724-.717 1.882-1.14.527-1.412.55-3.006 1.005-4.454.62-1.972.183-2.554-1.989-2.514-7.613.139-15.231.007-22.847.074-3.772.033-7.542.292-11.314.414-1.546.05-3.102-.074-4.638.059-.456.039-1.269.742-1.225 1.035.49 3.235 1.098 6.452 1.712 9.667 1.017 5.324 1.956 10.666 3.156 15.949.372 1.637-.118 4.253 2.81 4.265 8.991.036 17.982.041 26.973-.042.677-.006 1.763-.669 1.944-1.25.637-2.041 1-4.172 1.395-6.282.821-4.383 1.601-8.773 2.384-13.163.078-.442.058-.901.084-1.352-.451.138-.902.277-1.796.416Zm-21.243-11.507c8.549 0 17.099-.053 25.648.045 1.753.02 2.226-.835 2.453-2.219.159-.968.117-2.015.481-2.896.852-2.068-.35-2.058-1.784-2.016-5.54.161-11.08.358-16.621.42-2.222.024-4.447-.384-6.671-.382-2.298.002-4.6.444-6.891.375-6.588-.197-13.173-.515-19.754-.878-1.676-.092-1.873.558-1.43 1.908.469 1.43 1.02 2.85 1.297 4.32.256 1.361.959 1.852 2.228 1.764 2.003-.139 4.004-.395 6.008-.42 4.864-.062 9.729-.021 15.036-.021Z" fill="#000"/><path d="M619.932 539.404c2.471-2.747 5.134-5.175 7.124-8.066 3.408-4.949 4.907-10.794 6.679-16.462 1.25-3.996 2.383-8.038 3.328-12.116 1.236-5.339 2.022-10.789 3.404-16.086 1.152-4.415 2.832-8.697 4.386-13 .599-1.66 1.4-3.272 2.315-4.781.258-.426 1.242-.413 1.893-.601-.081.504-.042 1.069-.262 1.502-3.232 6.347-5.126 13.119-6.654 20.041-2.254 10.212-4.378 20.444-7.856 30.368-2.417 6.897-5.627 12.992-10.694 18.43-5.164 5.542-11.581 8.344-18.299 10.93-.438.169-1.081-.193-1.629-.308.35-.444.607-1.08 1.065-1.3 2.887-1.389 5.903-2.53 8.707-4.064 2.252-1.231 4.264-2.901 6.493-4.487ZM545.359 519.489c-5.059-5.944-9.836-11.934-15.008-17.562-4.347-4.73-9.939-7.934-15.46-11.15-2.678-1.56-5.31-3.201-7.935-4.849-.487-.305-.912-.771-1.236-1.251-.211-.311-.188-.781-.269-1.18.399-.021.88-.198 1.183-.038a78.183 78.183 0 0 1 4.28 2.478c4.049 2.504 8.128 4.964 12.106 7.577 2.286 1.502 4.574 3.082 6.559 4.948 7.95 7.475 15.061 15.688 20.948 24.903 1.397 2.188 2.584 4.519 3.726 6.853.296.605.059 1.471.067 2.216-.607-.46-1.406-.797-1.79-1.399-2.405-3.779-4.717-7.617-7.171-11.546ZM672.155 468.373c-.475-.649-.765-2.071-1.333-.216-.7 2.289-1.369 4.588-2.121 6.859-.151.457-.611.811-.929 1.212-.272-.447-.867-.991-.766-1.325.85-2.805 1.841-5.568 2.754-8.356.179-.548.457-1.267.253-1.705-2.298-4.945-4.607-9.887-7.066-14.754-1.808-3.581-4.866-6.043-8.01-8.422-.824-.624-1.912-2.427-1.778-2.556 1.448-1.407 2.216.401 3.069 1.021 5.612 4.08 9.404 9.576 12.086 15.921.478 1.131 1.176 1.983 2.827 2.137 2.264.211 4.179 1.577 5.184 3.783.203.445-.044 1.094-.083 1.65-.365-.222-.762-.404-1.088-.673-1.049-.865-2.034-1.815-3.126-2.62-.369-.272-.985-.209-1.488-.299.074.547.035 1.141.241 1.632 1.738 4.143 3.544 8.257 5.257 12.41.196.475-.06 1.138-.107 1.714-.545-.283-1.419-.442-1.582-.87-.798-2.105-1.407-4.282-2.194-6.543ZM497.34 484.083c-.855.251-1.751.731-2.322.478-4.745-2.102-9.749-2.776-14.861-3.032-5.03-.252-10.058-.55-15.081-.91-.732-.052-1.431-.562-2.145-.86.733-.44 1.457-1.244 2.2-1.262 7.019-.162 14.001.234 20.899 1.696 2.589.55 5.274.713 7.811 1.423 1.32.369 2.414 1.545 3.499 2.467Z" fill="#000"/><path d="M609.31 542.06c-.257.111-.408.088-.55.114-.617.115-1.231.243-1.846.366.264-.658.342-1.546.823-1.936 2.894-2.344 5.794-4.699 8.863-6.802 2.361-1.619 4.939-2.936 7.493-4.247.658-.337 1.589-.143 2.394-.192-.485.614-.852 1.411-1.474 1.812-3.003 1.936-6.147 3.661-9.1 5.667-2.272 1.544-4.336 3.394-6.603 5.218ZM626.349 517.498a1391.048 1391.048 0 0 1-14.286 8.069c-.404.225-.913.265-1.373.392.02-.549-.186-1.34.098-1.605 1.121-1.048 2.28-2.169 3.635-2.833 4.894-2.401 9.857-4.665 14.843-6.869.594-.263 1.489.158 2.244.261-.486.513-.882 1.241-1.478 1.491-1.13.472-2.375.671-3.683 1.094ZM505.417 495.701c-1.559-1.287-.701-1.849.548-1.726 3.144.309 6.341.559 9.377 1.361 3.14.83 6.138 2.226 9.141 3.508.637.272 1.024 1.126 1.527 1.712-.703.044-1.471.296-2.097.097-4.227-1.338-8.395-2.87-12.644-4.13-1.799-.534-3.749-.564-5.852-.822ZM632.545 499.352a1447.994 1447.994 0 0 1-15.974 9.301c-.453.26-1.08.218-1.626.317.066-.503.023-1.057.228-1.495.208-.444.592-.898 1.017-1.133 4.913-2.713 9.842-5.395 14.786-8.049.469-.252 1.065-.325 1.61-.357.385-.023.783.163 1.176.255-.369.35-.737.7-1.217 1.161ZM596.033 507.761c-.474-.475-1.076-.798-1.147-1.212-.108-.633.151-1.328.253-1.997.44.327.975.577 1.306.991 2.728 3.419 5.406 6.876 8.125 10.302 1.173 1.479 1.494 3.16 1.29 4.971-.035.309-.344.586-.526.879-.259-.182-.704-.324-.752-.55-1.068-4.969-4.961-8.13-7.657-12.053-.274-.398-.521-.813-.892-1.331ZM578.441 509.42c0 3.303.037 6.385-.034 9.465-.013.539-.48 1.067-.737 1.6-.333-.457-.92-.894-.957-1.374a148.172 148.172 0 0 1-.434-8.609c-.023-1.186.271-2.376.384-3.568.055-.579-.154-1.255.08-1.727.357-.722.994-1.305 1.512-1.947.21.72.595 1.441.59 2.16-.009 1.261-.256 2.52-.404 4ZM617.276 473.24c.553 3.099 1.001 6.085 1.431 9.075.052.361.143.82-.023 1.086-.281.452-.752.785-1.143 1.168-.199-.507-.476-.999-.584-1.525-.616-2.994-1.056-6.034-1.845-8.981-.36-1.346-1.39-2.511-2.101-3.767-.229-.403-.411-.832-.614-1.249.651-.02 1.631-.321 1.896-.011 1.076 1.263 1.934 2.713 2.983 4.204ZM599.574 531.66c.527 1.117 1.112 2.093 1.304 3.142.137.744-.257 1.586-.414 2.384-.417-.487-.974-.911-1.228-1.472a517.715 517.715 0 0 1-5.272-11.971c-.212-.501.025-1.193.053-1.796.562.329 1.392.521 1.638 1.009 1.137 2.247 2.117 4.575 3.14 6.879.249.56.447 1.142.779 1.825ZM608.425 507.097c-.627-1.517-1.211-3.126-1.645-4.775-.799-3.043-2.255-5.668-4.526-7.865-.334-.323-.329-.998-.48-1.51.607.083 1.392-.05 1.794.281 3.666 3.019 5.007 7.256 5.797 11.704.109.617-.534 1.366-.94 2.165ZM535.18 486.96c.568.495 1.391 1.081 1.423 1.708.183 3.592.26 7.196.148 10.79-.017.536-1.219 1.036-1.872 1.554-.084-.719-.235-1.436-.241-2.155-.023-2.891-.037-5.782.024-8.672.022-1.04.265-2.076.518-3.225ZM536.84 516.059c2.044.187 3.897.334 5.175 1.891.245.299.243.801.355 1.209-.408.033-.831.154-1.221.086-2.609-.449-5.199-1.029-7.82-1.37-1.008-.131-2.083.348-3.128.351-.442.001-.885-.507-1.327-.784.332-.314.611-.754 1.005-.919 2.184-.917 4.417-1.428 6.961-.464ZM547.461 506.765a128.499 128.499 0 0 1-2.228 6.123c-.133.339-.471.597-.715.892-.199-.284-.568-.569-.568-.853.003-1.169-.16-2.445.245-3.484 1.062-2.726 1.756-5.459 1.526-8.407-.034-.435.328-.9.506-1.352.412.452 1.141.88 1.178 1.361.14 1.824.056 3.664.056 5.72ZM628.341 486.739a171.302 171.302 0 0 1-4.86 3.069c-.259.157-.618.146-.931.213.012-.356-.124-.867.061-1.043 1.133-1.084 2.222-2.286 3.547-3.081 1.878-1.126 3.75-2.577 6.175-2.113.517.098.955.605 1.429.924-.448.271-.866.638-1.351.795-1.304.423-2.638.756-4.07 1.236ZM564.279 517.829c2.394 1.14 4.589 2.24 6.725 3.446.605.342 1.079.96 1.517 1.527.123.159-.031.63-.193.865-.067.097-.513.009-.744-.093-2.297-1.018-4.604-2.018-6.863-3.115-.622-.302-1.267-.82-1.587-1.41-.393-.725-.459-1.63 1.145-1.22ZM571.803 498.357c.147 2.135.316 4.048.424 5.965.02.365-.202.743-.312 1.116-.438-.179-1.105-.241-1.268-.561-.396-.774-.787-1.673-.766-2.512.052-2.126.271-4.254.569-6.361.061-.431.759-.773 1.164-1.155.21.498.573.99.592 1.496.022.591-.256 1.193-.403 2.012ZM660.427 455.095c.265-.561.35-1.054.597-1.447.206-.329.601-.541.913-.805.197.359.575.724.564 1.076a301.778 301.778 0 0 1-.441 9.07c-.019.29-.407.556-.624.833-.226-.264-.613-.508-.651-.797a72.873 72.873 0 0 1-.457-4.736c-.065-1.024-.012-2.055.099-3.194ZM564.721 504.11c.221 1.11.164 1.675-.946 1.047-1.003-.569-2.068-1.051-2.991-1.728-.4-.293-.513-.978-.757-1.485.589-.163 1.369-.646 1.73-.43 1.076.644 1.988 1.563 2.964 2.596ZM600.569 447.018c.939 2.635 1.876 5.048 2.818 7.46.025.063.153.114.146.157-.166.999-.344 1.997-.52 2.995-.667-.589-1.813-1.107-1.915-1.782-.362-2.412-2.139-3.454-3.746-4.844-1.369-1.185-2.395-2.792-3.447-4.301-.258-.369-.021-1.083-.012-1.639.461.14 1.087.139 1.35.448.766.897 1.351 1.947 2.086 2.875.231.292.709.39 1.074.577.003-.409.109-.848-.005-1.22-1.025-3.333-2.292-6.607-3.09-9.992-1.084-4.6-2.027-9.255-2.658-13.937-1.034-7.675-2.161-15.363-1.78-23.149.038-.79.587-1.554.899-2.331.278.737.724 1.455.808 2.213.638 5.796 1.448 11.589 1.733 17.406.321 6.575 1.544 12.959 3.194 19.278.845 3.234 2.033 6.379 3.065 9.786ZM604.995 437.282c.59-1.961 1.178-3.701 1.772-5.44.176-.514.238-1.155.587-1.501.467-.463 1.163-.695 1.76-1.026-.01.63.094 1.286-.049 1.883a1125.579 1125.579 0 0 1-4.1 16.6c-.169.657-.754 1.206-1.146 1.806-.346-.665-1.078-1.4-.973-1.984.607-3.392 1.412-6.749 2.149-10.338ZM590.058 427.434c.837 1.28 1.625 2.416 2.253 3.636.197.381-.037.985-.073 1.487-.459-.112-1.094-.072-1.345-.364-.91-1.056-1.869-2.134-2.489-3.366-1.803-3.579-3.45-7.237-5.166-10.861-.088-.186-.374-.36-.35-.504.142-.886.347-1.761.531-2.64.415.635.893 1.239 1.234 1.912 1.784 3.52 3.533 7.058 5.405 10.7ZM601.897 424.447c-.295 2.236-.525 4.262-.923 6.255-.124.618-.706 1.144-1.078 1.712-.218-.488-.517-.957-.641-1.467-.839-3.459.708-6.674 1.099-10.007.175-1.488.608-2.976 1.15-4.377.266-.688 1.048-1.176 1.597-1.754.17.797.6 1.644.462 2.384-.442 2.366-1.095 4.692-1.666 7.254ZM595.812 406.855c.733-1.471 1.271-2.881 2.025-4.164.257-.437 1.06-.553 1.613-.815.052.543.265 1.13.128 1.621a257.255 257.255 0 0 1-2.577 8.641c-.104.329-.585.538-.892.802-.283-.361-.818-.729-.808-1.081.051-1.634.252-3.263.511-5.004ZM587.845 613.977c5.357-.258 10.603-.406 15.85-.552.368-.01.785-.113 1.095.022.685.297 1.316.719 1.969 1.09-.659.366-1.312 1.037-1.978 1.051-4.642.092-9.287.049-13.93.049-.959 0-1.924.068-2.872-.027-.521-.053-1.014-.381-1.519-.584.425-.313.85-.626 1.385-1.049ZM584.526 604.241c-.234.48-.553 1.135-.93 1.171-2.488.237-4.989.418-7.487.437-.662.006-1.329-.619-1.994-.955.559-.255 1.113-.714 1.678-.729 2.873-.075 5.748-.034 8.733.076Z" fill="#000"/><path d="m211.5 361.5 38.5 60h94.5L349 411h-31l-34.5-49.5h-72Z" fill="#fff"/><path d="M349.308 451.103c-9.658 0-19.093.058-28.527-.017-8.75-.069-17.5-.266-26.249-.436-6.36-.123-12.72-.291-19.08-.444-6.061-.145-12.124-.241-18.183-.463-6.226-.228-12.448-.568-18.671-.884-5.478-.279-10.957-.541-16.429-.907-5.718-.383-11.428-.891-17.142-1.326-4.131-.315-8.269-.561-12.396-.923-1.316-.116-1.546.337-1.532 1.569.071 6.122.078 12.246.023 18.369-.119 13.181-.324 26.362-.413 39.543-.022 3.148.414 6.299.392 9.447-.042 5.763-.344 11.524-.387 17.288-.023 3.073.414 6.149.391 9.223-.085 11.811-.261 23.622-.426 35.433-.13 9.373-.303 18.745-.439 28.118-.042 2.933-1.695 4.576-4.702 4.587-2.504.009-4.219-1.87-4.272-4.571-.127-6.51-.315-13.019-.431-19.529-.057-3.235-.067-6.474.008-9.709.059-2.53.415-5.057.398-7.585-.025-3.672-.326-7.342-.399-11.015-.075-3.758-.059-7.519-.009-11.278.124-9.272.341-18.544.413-27.817.024-3.173-.367-6.348-.401-9.524-.068-6.323-.02-12.647-.02-18.971 0-3.684-.058-7.37.017-11.053.073-3.599.372-7.194.411-10.792.071-6.447.006-12.895.044-19.342.003-.598.339-1.194.52-1.791.158.072.413.108.459.224.234.602.5 1.212.593 1.843.137.935.212 1.892.184 2.835-.119 4.023-.421 8.045-.404 12.066.026 5.863.341 11.725.386 17.589.024 3.024-.394 6.05-.385 9.075.011 3.623.365 7.245.383 10.869.014 2.725-.379 5.453-.383 8.179-.003 2.552.408 5.105.385 7.655-.043 4.744-.369 9.486-.385 14.229-.013 3.671.387 7.343.383 11.015-.004 3.922-.365 7.842-.383 11.764-.014 2.95.395 5.902.383 8.852-.014 3.698-.384 7.395-.383 11.092.001 3.773.382 7.544.383 11.317.001 3.723-.429 7.448-.365 11.168.053 3.091.422 6.196.942 9.246.116.679 1.421 1.547 2.226 1.598.685.043 1.637-.833 2.1-1.544.426-.654.487-1.629.488-2.464.024-19.041.019-38.083.019-57.125 0-12.944-.059-25.888.016-38.831.075-12.932.341-25.863.403-38.794.025-5.165-.312-10.33-.393-15.496-.023-1.504.318-3.009.412-4.519.167-2.699-.292-3.116-2.929-3.331-4.896-.397-9.803-.741-14.674-1.361-7.933-1.01-15.99-1.432-23.633-4.044-3.123-1.068-6.175-2.441-9.089-3.994-2.589-1.38-3.149-4.024-2.964-6.746.175-2.582 1.75-4.372 4.077-5.131 5.208-1.699 10.458-3.309 15.773-4.625 2.369-.586 4.952-.243 7.409-.551 3.874-.486 7.716-1.218 11.585-1.745 2.851-.389 5.718-.701 8.589-.892 3.591-.24 7.203-.194 10.787-.499 5.736-.489 11.454-1.179 17.182-1.756a107.5 107.5 0 0 1 5.863-.445c4.043-.184 8.09-.309 12.135-.459 4.045-.149 8.091-.284 12.134-.468.461-.02.909-.312 1.363-.479-.202-.466-.341-.973-.614-1.392-4.059-6.237-8.158-12.448-12.201-18.696-3.616-5.588-7.184-11.208-10.753-16.827-2.553-4.016-5.129-8.019-7.581-12.097-1.095-1.821-.696-2.711 1.344-3.131 1.252-.258 2.592-.115 3.892-.089.48.009.956.283 1.436.292 9.645.166 19.291.292 28.936.467 6.212.113 12.465-.11 18.62.559 5.715.622 11.177-.458 16.751-.928.922-.078 2.299.723 2.856 1.536 5.481 8.01 10.796 16.133 16.234 24.172a1853.549 1853.549 0 0 0 15.702 22.837c.86 1.231 1.96 2.071 3.852 2.074 15.321.024 30.641.235 45.962.373 3.734.033 7.468-.048 11.201.017 6.137.105 12.273.269 18.408.442 4.195.118 8.389.301 12.584.44 4.791.159 9.585.262 14.375.46 6.299.26 12.597.574 18.894.89 5.553.28 11.103.604 16.655.889 3.297.169 6.606.191 9.893.476 5.883.511 11.751 1.194 17.63 1.759 3.605.347 7.231.501 10.826.93 5.381.642 10.751 1.394 16.11 2.202 4.478.675 8.978 1.303 13.386 2.311 4.047.926 8.119 2.014 11.929 3.623 3.424 1.445 3.083 2.661 2.177 5.572-.428 1.375-1.453 2.626-1.633 4.008-.587 4.507-4.037 5.299-7.482 5.979a644.104 644.104 0 0 1-19.797 3.581c-2.98.491-6.015.685-9.033.918-6.308.485-12.621.903-18.931 1.357-4.059.291-8.113.648-12.175.882-5.997.346-11.997.63-17.998.903-7.044.321-14.09.581-21.134.909-5.702.265-11.401.601-17.103.885-3.446.171-6.894.402-10.343.436-18.61.184-37.221.315-56.056.464Zm182.15-25.989c-1.263-.367-2.507-.834-3.793-1.083-4.503-.875-9.004-1.78-13.537-2.466-3.208-.485-6.476-.569-9.703-.946-5.97-.698-11.921-1.563-17.897-2.198-4.192-.446-8.415-.594-12.619-.933-5.12-.413-10.23-.958-15.352-1.319-7.278-.514-14.563-.946-21.847-1.351-6.222-.347-12.447-.637-18.673-.897-4.716-.197-9.435-.325-14.153-.453-6.136-.167-12.273-.317-18.41-.449-7.63-.164-15.26-.392-22.891-.432-13.442-.071-26.885-.028-40.328.012-.542.001-1.083.466-1.625.715.517.199 1.032.568 1.55.572 5.825.041 11.65-.001 17.475.062.681.007 1.357.512 2.035.787-.536.187-1.067.393-1.611.557-.533.16-1.08.39-1.622.394-4.107.033-8.215.032-12.322.01-1.238-.007-2.475-.113-3.713-.174.75 1.333 1.493 2.669 2.255 3.994.108.187.29.35.473.473.345.234.72.624 1.075.615 4.121-.104 8.241-.328 12.362-.365.728-.006 1.463.701 2.196 1.078-.731.22-1.46.625-2.192.631-6.149.051-12.299-.024-18.448.042-9.572.102-19.144.345-28.716.419-9.783.075-19.567.016-29.35.016-2.441 0-4.887.087-7.32-.051-.761-.043-1.488-.691-2.23-1.062.736-.376 1.449-.814 2.218-1.101.393-.147.886-.026 1.334-.026 20.538 0 41.075.002 61.612-.014.532 0 1.063-.206 1.595-.315-.236-.5-.408-1.044-.718-1.493-4.38-6.33-8.768-12.654-13.176-18.964-3.564-5.101-7.171-10.171-10.732-15.273a1990.537 1990.537 0 0 1-12.532-18.118c-.301-.442-.114-1.215-.154-1.835.488.316 1.132.522 1.441.963 4.218 6.009 8.394 12.049 12.573 18.086 6.71 9.692 13.409 19.39 20.124 29.078a451.235 451.235 0 0 0 5.401 7.616c.181.251.616.318.932.47.02-.414.209-.93.031-1.224-1.269-2.098-2.547-4.196-3.944-6.21-7.047-10.157-14.16-20.268-21.192-30.436-4.287-6.199-8.454-12.481-12.716-18.698-.676-.986-1.582-1.646-2.981-1.465-2.015.26-4.057.471-6.084.447-4.495-.055-8.987-.29-13.482-.414-6.136-.169-12.272-.33-18.41-.447-9.123-.173-18.247-.305-27.371-.454-.15-.002-.3.012-.448-.002-1.04-.101-2.08-.207-3.119-.311.567 1.01 1.091 2.047 1.71 3.025 4.535 7.161 9.047 14.337 13.647 21.456 7.198 11.141 14.466 22.238 21.674 33.373.324.501.457 1.19.48 1.798.014.356-.367.727-.57 1.091-.245-.231-.553-.422-.724-.698-1.066-1.72-1.949-3.582-3.209-5.142-.674-.835-2.007-1.679-2.995-1.627-4.828.253-9.635.892-14.461 1.23-3.962.277-7.941.305-11.91.479-6.449.282-12.9.549-19.344.908-3.691.206-7.376.536-11.055.89-5.806.558-11.61 1.141-17.404 1.802-2.533.289-5.051.747-7.56 1.214-4.013.746-8.028 1.492-12.012 2.375a88.48 88.48 0 0 0-8.25 2.261c-.788.257-1.367 1.155-2.042 1.758.628.549 1.186 1.221 1.898 1.618 1.079.603 2.222 1.205 3.413 1.471 3.163.706 6.375 1.191 9.553 1.839 4.951 1.01 9.853 2.327 14.843 3.067 6.674.99 13.404 1.645 20.125 2.274 6.151.575 12.323.923 18.485 1.371 4.133.299 8.265.61 12.399.893 6.685.459 13.365 1.026 20.057 1.312 7.101.304 14.214.309 21.321.495 3.076.08 6.15.28 9.224.438 5.702.293 11.4.731 17.105.865 10.69.251 21.384.354 32.076.467 5.676.06 11.352.049 17.028.003 16.069-.128 32.14-.219 48.207-.47 8.244-.129 16.481-.596 24.723-.852 2.961-.092 5.928.037 8.891-.026 5.092-.108 10.183-.268 15.273-.444 3.226-.111 6.451-.248 9.672-.45 6.687-.418 13.371-.881 20.056-1.337 4.208-.287 8.414-.628 12.624-.886 5.401-.332 10.807-.569 16.207-.918 3.54-.229 7.091-.439 10.603-.916 5.695-.773 11.37-1.701 17.036-2.671 6.193-1.06 12.336-2.229 18.194-4.749 2.138-.919 1.184-1.571.278-2.053-1.94-1.032-4.049-1.747-6.537-2.592Zm-313.217 20.164c4.58.299 9.159.631 13.741.888 5.923.333 11.848.638 17.775.896 7.641.333 15.285.604 22.927.905 3.673.145 7.343.341 11.017.439 6.807.181 13.616.453 20.424.43 24.358-.082 48.715-.248 73.072-.436 7.406-.057 14.812-.268 22.217-.439 5.241-.121 10.481-.29 15.721-.443 10.106-.296 20.213-.593 30.32-.897 4.643-.14 9.286-.298 13.928-.446.299-.009.6.023.896-.004 6.325-.593 12.646-1.224 18.974-1.777 4.127-.361 8.279-.477 12.394-.938 7.033-.789 14.025-2.121 21.075-2.552 6.306-.386 12.362-1.718 18.391-3.308 1.827-.481 4.09-.284 5.323-2.247.285-.453.404-1.011.599-1.521-.554-.028-1.173-.233-1.651-.057-7.898 2.902-16.262 3.434-24.461 4.728-5.68.897-11.443 1.265-17.171 1.847-6.024.612-12.043 1.301-18.078 1.766-5.69.438-11.399.645-17.101.919-3.82.183-7.645.264-11.463.465-4.882.256-9.757.646-14.64.872-7.566.351-15.133.752-22.704.88-14.797.251-29.596.33-44.395.476-1.37.014-2.74.013-4.109.001-16.666-.147-33.332-.273-49.997-.459-6.884-.077-13.767-.27-20.649-.44-11.004-.271-22.017.526-33.019-.809-6.243-.758-12.587-.693-18.886-.975-3.895-.174-7.794-.259-11.687-.464a797.792 797.792 0 0 1-14.414-.893c-5.866-.414-11.731-.841-17.589-1.352-4.227-.368-8.444-.859-12.662-1.333-6.488-.729-12.957-1.878-19.463-2.137-8.038-.319-15.474-2.863-23.047-5.024-.257-.073-.689-.204-.766-.102-.174.231-.333.678-.22.882.296.53.645 1.194 1.145 1.418 1.888.843 3.787 1.811 5.787 2.225 5.121 1.059 10.299 1.842 15.453 2.744 5.081.89 10.138 1.959 15.247 2.64 5.012.667 10.076.952 15.119 1.387 2.027.175 4.06.28 6.086.457 6.699.586 13.395 1.191 20.541 1.788Z" fill="#00160A"/><path d="M201 414.5c0 3.59-5.201 7-11 7s-11-3.41-11-7-2-13.5 11.5-10.5c12-.5 10.5 6.91 10.5 10.5Z" fill="#fff"/><path d="M206.024 412.247c-2.45 1.121-3.182 3.114-4.329 5.294-1.671 3.174-4.956 5.381-9.145 5.242-3.965-.131-7.958.324-11.661-1.761-2.003-1.127-3.417-2.959-3.594-4.86-.272-2.919.156-5.995.818-8.882.627-2.735 3.218-3.848 5.671-4.379 4.644-1.005 9.317-.737 13.827.862 1.015.359 1.826 1.262 2.816 1.737.833.4 1.935.964 2.662.714 1.616-.556 3.187-1.626 4.558.108 1.158 1.464.467 3.833-1.357 5.658l-.266.267Zm-26.665 3.208c.756 1.107 1.271 2.589 2.31 3.254 4.25 2.722 9.036 2.341 13.608 1.303 4.145-.941 6.277-5.701 4.522-9.254-.378-.765-1.455-1.494-2.31-1.637-1.135-.19-2.394.443-3.556.317-3.846-.414-7.668-1.052-11.511-1.503-.823-.097-2.331.037-2.442.397-.66 2.151-1.699 4.347-.621 7.123Zm14.826-10.4c-3.332 0-6.664-.015-9.995.026-.285.004-.566.377-.848.579.317.241.623.675.952.693 3.562.195 7.127.373 10.693.444 1.131.022 2.268-.288 3.402-.446-1.18-.432-2.36-.865-3.542-1.293-.065-.024-.146-.003-.662-.003Zm11.507 2.655c-1.003.561-2.403.892-2.896 1.747-.48.832-.032 2.2.009 3.333.512-.506 1.025-1.01 1.536-1.517.464-.461 1.082-.851 1.343-1.407.262-.558.167-1.283.008-2.156ZM185.112 428.954c-2.457-.466-4.766-.731-6.896-1.493-.901-.323-2.904-.667-1.976-2.688.81-1.767 2.527-2.504 4.071-1.696.341.179.549.614.818.932-.312.173-.633.331-.933.523-.435.278-.854.581-1.28.874.397.178.778.442 1.193.521 4.077.771 8.135 1.213 12.308.446 2.064-.379 4.257-.02 6.388-.093 1.341-.047 2.686-.446 4.01-.365.898.055 1.763.67 2.642 1.034-.72.373-1.422 1.029-2.163 1.075-5.983.375-11.973.635-18.182.93Z" fill="#000"/><path d="M373.057 621.379c-6.921-.598-13.615-1.23-20.316-1.777-2.991-.244-5.996-.342-8.997-.458-4.492-.173-8.987-.274-13.478-.461-6.523-.271-13.042-.724-19.567-.854-7.564-.151-15.134-.086-22.7-.024-13.454.11-26.907.264-40.36.451-4.046.057-8.089.321-12.135.421-2.712.067-5.428.066-8.141.001-4.27-.104-8.537-.323-12.807-.428-7.255-.179-14.51-.358-21.767-.441-6.446-.073-12.934.429-19.328-.154-5.258-.478-10.374-2.35-15.612-3.264-2.865-.499-4.995-1.855-6.564-4.068-2.204-3.108-.317-8.104 3.644-10.056 3.023-1.49 6.037-2.638 9.44-2.659.835-.005 1.667-.395 2.503-.406 3.534-.048 7.072-.084 10.602.048.537.02 1.284.86 1.508 1.476.468 1.284-.573 1.231-1.38 1.133-2.195-.266-4.377-.742-6.577-.837-1.869-.082-3.809.027-5.624.45-3.034.708-6.066 1.55-8.96 2.688-2.077.817-3.47 2.424-3.437 4.999.031 2.311 1.236 3.696 3.182 4.322 4.555 1.467 9.177 2.73 13.775 4.065.207.06.446.004.67.008 7.928.149 15.855.405 23.783.415 6.733.009 13.528-.915 20.186-.277 12.806 1.226 25.6.498 38.396.721 4.514.079 9.035-.285 13.555-.402 2.189-.056 4.382.009 6.572-.013 14.648-.143 29.296-.395 43.944-.396 5.85 0 11.701.522 17.549.856 4.434.254 8.863.583 13.294.889 6.385.442 12.774.842 19.154 1.362 4.302.35 8.604.779 12.881 1.352 4.709.631 9.386 1.502 14.087 2.2 2.552.378 5.125.619 7.691.908 5.352.603 10.694 1.337 16.061 1.744 3.489.265 7.02-.066 10.524.073 9.673.383 19.338 1.068 29.014 1.248 5.693.105 11.401-.504 17.1-.829 4.731-.269 9.475-.438 14.185-.93 5.533-.577 11.062-1.293 16.54-2.25 4.612-.805 9.275-1.677 13.675-3.21 3.161-1.101 6.331-2.901 8.782-5.164 4.785-4.417 3.167-8.672-1.198-11.636-5.006-3.4-10.54-5.966-16.818-6.41-3.858-.273-7.698-.841-11.536-1.353-.33-.044-.857-.706-.809-1.004.07-.435.602-1.161.894-1.14 3.527.247 7.062.494 10.563.977 2.778.383 5.671.697 8.23 1.739 5.146 2.096 10.549 3.894 14.032 8.792 3.036 4.269 1.666 7.836-1.073 10.968-3.997 4.57-9.538 6.641-15.283 7.882-6.009 1.299-12.101 2.236-18.183 3.158-3.28.498-6.611.724-9.928.912-6.444.365-12.892.642-19.341.909-7.865.326-15.795 1.356-23.579.694-7.968-.677-15.902-.995-23.876-1.195-5.05-.127-10.1-.707-15.121-1.322-4.641-.569-9.233-1.517-13.864-2.181-2.921-.418-5.88-.559-8.808-.935-2.884-.37-5.751-.879-8.849-1.327Z" fill="#00160A"/><path d="M495.835 601.663c0 1.642.003 3.061-.001 4.48-.006 2.149-1.713 3.642-4.092 3.585-2.059-.049-3.542-1.414-3.504-3.48.083-4.594.383-9.187.395-13.781.009-3.82-.336-7.641-.398-11.463-.075-4.605-.018-9.212-.018-13.819v-1.568c0-5.451.05-10.903-.02-16.353-.038-3.001-.398-5.999-.408-8.999-.045-14.288-.02-28.576-.02-42.864v-46.974c0-.522-.168-1.134.047-1.543.216-.411.815-.62 1.246-.917.167.325.476.65.478.976.031 4.879-.034 9.76.04 14.638.053 3.5.36 6.997.411 10.497a583.1 583.1 0 0 1-.002 15.31c-.024 1.981-.377 3.959-.395 5.94-.014 1.505.395 3.012.396 4.519.027 26.06.02 52.121.02 78.182 0 8.986-.003 17.972.003 26.959.001.923-.265 1.927 1.247 2.086 1.424.15 1.975-.638 2.31-1.728.146-.477.024-1.037.024-1.56 0-2.912-.016-5.825.003-8.737.145-23.012.311-46.024.424-69.036.012-2.401-.411-4.805-.395-7.206.023-3.374.376-6.746.384-10.12.006-2.999-.412-6-.388-8.999.067-8.003.246-16.006.432-24.008.078-3.351.424-6.7.405-10.049-.029-5.166-.282-10.33-.402-15.496-.021-.876-.379-2.231 1.118-2.106 1.123.093 1.949.817 1.142 2.237-.224.395-.016 1.027-.037 1.549-.144 3.522-.398 7.044-.413 10.567-.011 2.801.361 5.602.384 8.404.016 1.979-.351 3.958-.385 5.94-.021 1.205.391 2.414.397 3.622.038 8.139.059 16.279-.001 24.418-.022 3.001-.394 6-.395 8.999 0 3 .411 6.001.391 8.999-.094 14.052-.317 28.103-.397 42.154-.023 4.145.415 8.292.391 12.436-.045 8.029-.268 16.056-.417 24.309ZM313.909 596.734c-5.761.149-11.301.241-16.835.464-5.628.226-11.249.607-16.875.873-6.893.327-13.787.622-20.681.897-4.566.182-9.149.119-13.697.497-7.02.584-14.017 1.454-21.025 2.19-.517.055-1.044.008-1.567.008-6.868 0-13.74.135-20.603-.061-3.109-.089-6.209-.784-9.29-1.335-.499-.09-.875-.864-1.308-1.322.514-.289 1.061-.871 1.536-.817 2.177.249 4.333.68 6.498 1.035.634.104 1.272.245 1.909.248 4.554.021 9.119.212 13.66-.033 8.197-.442 16.379-1.152 24.568-1.745.371-.027.747.007 1.12-.005 4.566-.147 9.135-.261 13.699-.455 6.224-.264 12.482-.261 18.659-.959 11.296-1.277 22.611-1.242 33.941-1.293 14.72-.066 29.454-.704 44.153-.23 6.357.205 12.734 1.164 19.159 1.177 6.956.014 13.913.428 20.866.367 5.553-.048 11.098-.61 16.652-.831 8.832-.353 17.673-.526 26.502-.94 6.391-.3 12.768-.894 19.154-1.304 3.294-.212 6.597-.269 9.892-.468 6.983-.42 13.966-.84 20.942-1.369 1.731-.132 1.59.57 1.011 1.615-.173.313-.668.616-1.029.633-4.042.191-8.087.325-12.131.474-8.088.299-16.245.058-24.241 1.082-5.512.706-10.964 1.12-16.488 1.179-2.104.022-4.204.357-6.31.413-7.029.188-14.062.256-21.09.479-7.12.226-14.237.571-21.354.885-2.701.119-5.402.436-8.101.413-5.239-.046-10.558.261-15.701-.518-15.098-2.287-30.254-.743-45.595-1.244Z" fill="#00160A"/><path d="m328.5 212 15.5.5V318h-14l-1.5-106Z" fill="#fff"/><path d="M328.696 303.233c-.149-1.133-.427-2.041-.429-2.95-.026-17.396.001-34.791-.039-52.187-.006-2.775-.391-5.549-.407-8.325-.055-9.059.015-18.119-.054-27.178-.013-1.635.435-2.202 2.12-2.151 3.804.114 7.616.098 11.422.011 2.146-.048 3.426.57 3.495 3.697.095 4.328.024 8.66.024 12.99v45.55c0 5.401.051 10.803-.012 16.203-.108 9.248-.355 18.494-.386 27.741-.007 2.155-1.521 2.111-2.686 2.225-3.207.314-6.439.418-9.664.486-2.787.059-3.693-1.511-3.464-4.318.226-2.774-.252-5.601-.315-8.407-.023-1.051.255-2.109.395-3.387Zm1.345-73.263c0 5.398-.037 10.797.007 16.196.129 15.983.294 31.966.437 47.949.023 2.488.004 4.976.004 7.464 0 4.653.055 9.306-.032 13.957-.028 1.516.372 2.206 1.973 2.049 2.097-.205 4.212-.239 6.304-.477 3.858-.439 3.853-.479 3.853-4.401v-57.166c0-12.239-.012-24.478.02-36.717.003-1.132.234-2.272.438-3.395.389-2.146-.029-2.703-2.172-2.709-2.985-.008-5.97.039-8.954-.018-1.698-.032-2.389.702-2.342 2.377.062 2.188-.042 4.381.03 6.568.087 2.627.284 5.25.434 8.323Z" fill="#00160A"/><path d="M292 232h12.5l1.5 86h-14v-86Z" fill="#fff"/><path d="M291.952 231.09c.983-.15 1.737-.387 2.503-.433 3.07-.187 6.144-.317 9.217-.462 1.436-.068 2.148.575 2.183 2.065.119 5.014.371 10.026.405 15.04.021 3.022-.322 6.045-.389 9.071-.024 1.128.398 2.263.401 3.396.032 11.717-.033 23.434.039 35.151.043 7.103.292 14.205.421 21.309.039 2.162-.921 3.11-3.147 3.129-3.358.03-6.719-.065-10.074.04-1.555.049-2.03-.433-2.038-2.003-.103-21.184-.251-42.369-.434-63.553-.027-3.223-.348-6.443-.414-9.666-.075-3.707-.071-7.417.033-11.123.019-.663.697-1.308 1.294-1.961Zm.897 23.973c0 7.119-.05 14.239.01 21.358.112 13.106.288 26.212.437 39.318.004.299-.123.706.026.874.337.382.814.923 1.223.914 2.778-.064 5.551-.294 8.329-.387 1.485-.05 2.166-.745 2.064-2.182-.108-1.509-.398-3.012-.422-4.52-.181-11.512-.376-23.024-.436-34.537-.025-4.741.376-9.485.386-14.228.009-3.995-.339-7.991-.397-11.988a581.262 581.262 0 0 1 .007-15.456c.016-1.336-.399-1.904-1.762-1.805-2.549.185-5.102.423-7.654.416-1.551-.005-1.861.628-1.833 1.985.066 3.16.022 6.323.022 9.485v10.753Z" fill="#00160A"/><path d="M255 257h12.5l1.5 61h-14v-61Z" fill="#fff"/><path d="M269.099 288.446c.15 7.844.305 15.464.444 23.084.031 1.666-.16 3.353.045 4.994.272 2.164-1.388 2.269-2.563 2.329-3.497.177-7.01.126-10.512.03-1.264-.035-2.274-.534-2.232-2.228.098-3.926.061-7.857.026-11.786-.137-15.551-.297-31.102-.439-46.653-.024-2.675.243-2.927 2.87-2.928 3.132-.002 6.266.055 9.397-.023 1.756-.043 2.524.592 2.546 2.413.035 2.774.375 5.544.398 8.317.06 7.409.02 14.818.02 22.451Zm-1.792-12.323c-.149-2.327-.377-4.652-.429-6.981-.074-3.309-.033-6.62-.013-9.93.009-1.452-.651-2.205-2.113-2.125-2.254.122-4.51.454-6.756.39-1.846-.053-2.418.464-2.38 2.362.231 11.533.369 23.068.477 34.603.063 6.744.032 13.489-.007 20.233-.007 1.238.234 2.391 1.586 2.4 2.624.018 5.253-.393 7.875-.349 1.775.029 2.309-.502 2.242-2.269a701.126 701.126 0 0 1-.465-18.626c-.075-6.419-.017-12.839-.017-19.708Z" fill="#00160A"/><path d="M187.995 307.714c3.758 1.343 7.428 2.492 10.076 5.396 4.004 4.394 4.853 9.581 3.96 15.339-1.338 8.63-5.551 16.069-9.407 23.661-1.198 2.358-2.71 4.556-4.093 6.819-1.733 2.834-3.38 5.541-3.338 9.193.047 4.064-.902 8.13-1.198 12.211-.31 4.259.652 8.306 2.632 12.112.255.491.185 1.151.266 1.732-.529-.34-1.189-.573-1.566-1.037-2.602-3.211-3.255-7.163-3.531-11.047-.421-5.929.246-11.854 1.784-17.601.579-2.165 1.678-4.279 2.927-6.16 5.8-8.738 10.748-17.886 13.047-28.186.74-3.313 1.386-6.811.358-10.32-1.565-5.347-5.503-8.083-10.5-9.356-3.697-.941-7.534-1.57-11.34-1.792-6.718-.392-13.481-.091-20.187-.598-6.054-.457-12.239-.09-18.119-2.152-3.854-1.351-6.073-4.104-6.815-8.021-.099-.52.77-1.224 1.191-1.844.475.64 1.287 1.24 1.367 1.926.336 2.862 2.085 4.594 4.548 5.393 2.918.946 5.97 1.873 8.999 2.005 8.961.391 17.947.227 26.91.607 3.952.167 7.871 1.122 12.029 1.72Z" fill="#fff"/><path d="M124.254 325.301c-2.396-.974-3.989-2.483-4.467-4.945-.083-.43.175-.927.275-1.393.51.18 1.177.218 1.495.571.548.608.8 1.474 1.315 2.121 2.696 3.386 6.555 2.788 10.093 2.559 3.733-.243 7.426-1.109 11.134-1.715 6.362-1.04 12.722-2.094 19.084-3.133 5.582-.913 10.848-.146 15.585 3.109 3.782 2.598 5.305 6.48 5.614 10.836.699 9.867-2.117 19.098-5.595 28.133-1.751 4.551-2.444 9.207-1.936 13.95.748 6.975 1.841 13.923 6.125 19.846.239.33.507.745.503 1.119-.005.54-.245 1.078-.385 1.618-.423-.255-.988-.41-1.246-.779-3.411-4.874-5.393-10.332-6.386-16.16a102.117 102.117 0 0 1-.899-6.796c-.653-6.377 1.585-12.1 3.896-17.867 1.387-3.461 2.481-7.101 3.181-10.76.676-3.538.965-7.209.899-10.812-.069-3.766-.612-7.701-3.945-10.159-1.851-1.366-4.115-2.456-6.353-2.959-5.517-1.239-11.013-.195-16.491.793-6.344 1.144-12.69 2.376-19.09 3.064-4.047.435-8.193-.054-12.406-.241ZM217 274h14v44h-14z" fill="#fff"/><path d="M215.777 293.375c0-5.525-.005-10.825.002-16.125.004-3.369 1.142-4.488 4.53-4.488 3.21 0 6.421.052 9.629-.02 1.823-.041 2.446.738 2.44 2.514-.04 13.586-.017 27.173-.026 40.759-.002 2.424-.504 2.9-2.902 2.901-3.658.001-7.316-.028-10.974.013-1.57.018-2.243-.639-2.267-2.225-.114-7.702-.283-15.404-.432-23.329Zm13.667 23.3c.373-.504 1.048-1.001 1.06-1.515.032-1.278-.384-2.566-.359-3.845.055-2.852.38-5.701.398-8.553.057-8.662.008-17.325.032-25.988.005-1.584-.683-2.304-2.257-2.221-2.999.157-6.004.246-8.995.506-.469.041-1.212.805-1.251 1.281-.255 3.167-.477 6.346-.47 9.521.007 3.574.35 7.147.396 10.722.072 5.675.019 11.351.019 17.027 0 3.444 0 3.44 3.416 3.071.369-.04.747-.016 1.12-.004 2.222.071 4.444.148 6.891-.002Z" fill="#00160A"/><path d="M257.897 394.644c-1.869-.208-2.39-1.463-1.614-2.538 2.309-3.199 4.871-6.218 7.406-9.248.343-.41 1.094-.479 1.657-.706-.045.606.062 1.276-.162 1.807-.939 2.223-1.963 4.41-2.984 6.597-.526 1.127-.078 1.202.895.971a3.583 3.583 0 0 1 1.556.005c.457.102.868.414 1.299.634-.202.36-.367.749-.613 1.077a1934.217 1934.217 0 0 1-8.232 10.912c-.246.323-.642.532-.968.795-.16-.406-.537-.871-.445-1.208.585-2.135 1.305-4.233 1.915-6.362a8.123 8.123 0 0 0 .29-2.736Z" fill="#FFB61D"/><path d="M266.971 369.214c.635.003 1.158.118 1.681.233-.132.39-.163.868-.412 1.158a841.728 841.728 0 0 1-8.813 10.154c-.336.381-.91.553-1.373.822.051-.603-.097-1.334.191-1.786.837-1.311 1.801-2.549 2.803-3.742 1.905-2.269 3.871-4.487 5.923-6.839ZM246.359 407.75c-1.297.352-1.895.076-1.076-1.147 1.335-1.995 2.68-3.989 4.153-5.88.294-.378 1.184-.291 1.8-.419-.163.572-.188 1.242-.514 1.698-1.368 1.914-2.826 3.763-4.363 5.748Z" fill="#00160A"/><path d="m366 482.5 8.5 22.5 13-8.5-4-16.5 12.5-8.5 4.5-24.5H438l-9 54.5-3.5 28L424 556l5.5 6 7 3.5h9.5l6.5-1.5 12-25.5 9.999-26.5 13.5-51 7.5-4.5s7-21.5 7-32.5 4.525-43.67-2-67c-5.432-19.427-23.5-46-23.5-46L464.5 298l2-43-39.5-5-6.5 18s3.5 15.5 9 21.5c3.483 3.8 11 3 11 3l4.5 22-4.5 9-11.5 30-2 25.5-35 9.5 14.5 8.5-54.5 8s-12 6-8 29.5 13.5 45.5 13.5 45.5l8.5 2.5Z" fill="#fff"/><path d="M483.5 462.5c4.68-2.644 8.899-3.627 11.968-7.317 8.527-10.758 8.226-97.642 4.532-95.683-3.727 1.976-3.193 18.533-2.5 22 3.5 17.5-5.931 58.762-6.75 60.5-.75 9-12.658 12.502-20.75 16-4.201 1.816-9.919 2.341-10 4.5-.07 1.88 3.373 3.724 5.799 3.45 5.768-.652 13.015-.803 17.701-3.45ZM443.642 554.454c-1.19 3.08-1.334 6.114-1.47 9.411 1.828.954 4.071 1.52 6.089.954.539-.15 1.097-.229 1.642-.353.676-.153.863-.463 1.374-.906 1.01-.877 1.997-1.852 2.749-2.959 2.842-4.185 5.491-8.73 7.292-13.477.751-1.979 1.859-3.929 2.912-5.782l.066-.116c.509-.897.744-2.016 1.241-2.959.516-.981.78-2.025 1.069-3.093.583-2.158 1.704-4.149 2.195-6.356.438-1.973 1.441-3.823 1.985-5.765.571-2.041 1.244-4.044 1.661-6.127.207-1.036.698-2.445.382-3.484-.318-1.043-1.739.036-2.301.429-2.329 1.631-3.8 3.235-4.858 5.918-1.389 3.522-3.658 6.789-6.318 9.449-2.692 2.692-4.973 5.798-7.216 8.857-2.246 3.062-4.515 6.215-6.089 9.678a81.132 81.132 0 0 0-1.47 3.417c-.423 1.058-.528 2.211-.935 3.264Z" fill="#E7EAEE"/><path d="M370 515c-8.898 8.404-23.621 20.901-17.5 31.5 5.198 9 21.95-6.82 32-15.5 9.451-8.162 19.792-22.038 15.5-27.5-5.5-7-21 3-30 11.5Z" fill="#fff"/><path fill-rule="evenodd" clip-rule="evenodd" d="M422.136 246.262c1.726-1.072 3.412-2.211 5.223-3.439 1.177.128 1.655.456.403 1.247-3.25 2.053-6.5 4.145-8.329 7.726-.235.458-.213 1.049-.191 1.641.01.272.02.545.005.805.253-.076.512-.14.772-.204.576-.142 1.152-.283 1.657-.557.721-.391 1.408-.844 2.095-1.298a36.56 36.56 0 0 1 1.641-1.041c.218-.128.568-.05.881.02l.176.039c.048.009.107.451.015.601-.959 1.566-1.586 3.306-2.214 5.049-1.066 2.959-2.134 5.924-4.832 8.049-1.804 1.421-1.485 4.385.174 5.492.997.665 5.058.289 6.011-.576.173-.157.32-.346.466-.534l.001-.001c.067-.086.134-.173.204-.256a3.762 3.762 0 0 1-.342-.228c-.25-.18-.501-.36-.744-.35-.38.017-.76.102-1.138.187-.454.102-.906.203-1.355.185-.505-.02-1.004-.214-1.502-.408-.22-.086-.44-.172-.661-.243.082-.221.153-.45.223-.68l.001-.001c.157-.513.315-1.025.606-1.443.28-.402.639-.759.997-1.113.492-.488.98-.972 1.25-1.564a164.788 164.788 0 0 0 4.47-10.751c.569-1.524 1.327-2.415 2.962-2.23.607.069 1.22.12 1.834.172 1.675.14 3.355.281 4.922.776 7.843 2.474 13.085 7.006 13.507 16.991.037.877-.078 1.758-.192 2.64-.083.636-.166 1.272-.192 1.908-.012.297.164.602.34.907l.001.001c.08.14.161.28.224.419.127-.068.261-.127.396-.186.301-.134.603-.267.82-.486.281-.283.504-.623.728-.965.129-.197.258-.394.399-.58.288-.383.561-.787.834-1.191.666-.985 1.334-1.971 2.225-2.657.937-.72 2.568-1.109 3.689-.828 1.114.279 1.558 1.63 1.538 3.105-.032 2.398-.97 4.186-2.347 6.056l-.115.156c-1.264 1.714-2.983 4.046-2.604 5.636.792 3.329 2.006 6.554 3.222 9.782v.001c.647 1.719 1.294 3.438 1.878 5.175.265.787.147 2.138-.364 2.692-3.676 3.978-7.436 7.878-11.195 11.777l-.013.013-2.632 2.733a5.479 5.479 0 0 1-.636.538c-.103.079-.206.158-.307.239a5.069 5.069 0 0 0-.207-.349c-.158-.248-.315-.497-.353-.764-.998-6.912-2.644-13.624-5.778-19.91-.154-.31.248-1.312.525-1.373 3.775-.837 7.25-2.337 10.401-4.584.275-.196.467-.514.658-.832.088-.147.177-.294.274-.429a5.182 5.182 0 0 1-.55-.124c-.403-.107-.806-.213-1.117-.087-.991.401-1.963.855-2.935 1.308-1.405.656-2.808 1.311-4.266 1.806-7.307 2.485-13.144.886-16.778-5.571-1.194-2.121-1.755-4.602-2.318-7.089-.283-1.249-.567-2.5-.931-3.708-.115-.382-.421-.707-.726-1.031-.141-.15-.282-.3-.405-.455-.113.189-.265.386-.417.583-.329.427-.659.854-.588 1.198a112.273 112.273 0 0 0 2.157 8.78c1.39 4.8 4.546 7.966 9.144 9.757.603.235 1.45.815 1.505 1.311.16 1.459.208 3.01-.109 4.431-1.27 5.699-4.851 10.05-8.427 14.396l-.847 1.03-.007.008-.007.008c-2.348 2.852-4.699 5.707-6.884 8.683-1.075 1.464-1.855 3.245-.907 5.197 1.523 3.138 4.821 3.21 8.322 2.531 4.918-.954 8.803-3.878 12.472-7.134.177-.156.403-.255.629-.354.105-.046.211-.092.311-.144.042.145.101.291.159.438.127.32.254.639.217.938-.219 1.768-.466 3.54-.859 5.274a11.595 11.595 0 0 1-1.19 3.1c-.382.676-.838 1.32-1.293 1.963-.739 1.044-1.475 2.083-1.884 3.245-1.892 5.382-3.643 10.83-5.119 16.342-2.054 7.67-3.997 15.396-3.006 23.488.057.46-.075 1.299-.32 1.387-.571.204-1.149.445-1.729.688l-.009.003c-1.643.687-3.307 1.383-4.905 1.268-2.791-.2-5.241-.017-7.811 1.089-1.71.736-3.562 1.156-5.402 1.572-.402.091-.803.182-1.202.276-1.019.24-2.049.44-3.078.641-1.516.295-3.032.59-4.514 1.011-.859.245-2.215 1.391-2.116 1.861.236 1.122-.161 1.082-.85 1.013l-.049-.005c-1.179-.118-2.358-.232-3.536-.347-3.252-.314-6.503-.629-9.746-1.02-2.229-.269-4.452-.591-6.675-.913-2.066-.299-4.133-.599-6.204-.855-1.792-.222-3.592-.382-5.392-.541l-.012-.001-.006-.001a209.591 209.591 0 0 1-4.038-.384c-1.264-.138-2.526-.298-3.789-.457-2.568-.326-5.136-.651-7.714-.784-.973-.05-2.566.974-2.895 1.871-.574 1.565 1.031 2.309 2.262 2.486 4.038.579 8.1.999 12.162 1.388 5.241.502 10.486.985 15.738 1.348 3.922.272 7.846.502 11.771.732h.003c3.553.208 7.107.416 10.658.656 1.612.108 3.218.291 4.825.475l.01.001c1.241.141 2.482.283 3.725.39 1.207.104 2.45.144 3.638-.039.37-.057.696-.405 1.022-.753.148-.158.296-.316.448-.446a7.263 7.263 0 0 1-.571-.363c-.411-.278-.822-.556-1.255-.598a374.583 374.583 0 0 0-7.568-.63l-.013-.001a698.998 698.998 0 0 1-4.097-.321c-.255-.021-.504-.124-.752-.227-.116-.048-.231-.096-.347-.136.108-.093.211-.202.315-.311.224-.237.449-.475.717-.546l.524-.141h.001c1.844-.496 3.696-.994 5.575-1.307a83.574 83.574 0 0 1 2.124-.316c2.962-.416 5.917-.83 8.533-2.561.224-.149.509-.289.766-.291.567-.004 1.134-.01 1.701-.016h.011c2.283-.023 4.566-.046 6.845.038 1.116.04 2.945 2.647 2.782 3.777-.243 1.687-.51 3.378-.918 5.029-.14.569-.658 1.37-1.131 1.475-.809.178-1.618.367-2.427.555l-.017.004-.011.003h-.002c-3.021.703-6.051 1.409-9.113 1.648-2.446.192-4.917.04-7.391-.112-1.416-.087-2.833-.174-4.246-.197-.444-.007-.892.255-1.339.517a7.27 7.27 0 0 1-.621.336c.208.142.413.316.618.489.446.378.893.756 1.376.813 1.319.154 2.649.218 3.979.282 1.215.059 2.431.117 3.639.244 2.867.302 5.693-.117 8.519-.536 3.146-.466 6.292-.933 9.495-.405 1.105.182 2.226.279 3.346.376 1.524.132 3.046.263 4.522.608l.646.152c7.397 1.731 14.776 3.459 22.443 3.411 2.436-.015 3.439 1.027 3.453 3.492.008 1.596.022 3.193.036 4.789v.011c.049 5.49.097 10.983-.077 16.467-.105 3.322-.402 6.638-.699 9.954-.211 2.356-.422 4.713-.564 7.073-.392 6.482-.654 12.974-.87 19.465-.027.839.326 1.947.905 2.506 2.638 2.544 5.984 3.696 9.459 2.875l.9-.212c5.474-1.287 10.984-2.583 15.993-5.375.413-.23.917-.295 1.422-.359.233-.03.467-.06.692-.107l-.253.487-.001.003c-.199.382-.397.763-.591 1.147-.042.084-.089.167-.135.25-.124.225-.25.451-.303.692-.482 2.163-.938 4.333-1.394 6.503-.964 4.59-1.929 9.181-3.138 13.704-2.394 8.959-5.087 17.841-7.867 26.688-.677 2.153-1.522 4.254-2.367 6.355-.945 2.347-1.889 4.693-2.597 7.112-3.531 12.056-9.309 23.042-15.212 33.998-2.218 4.117-5.832 5.293-10.034 5.19-2.081-.051-4.159-.357-6.231-.661-.478-.07-.956-.14-1.434-.207-5.174-.726-10.642-4.422-10.454-10.855.103-3.515.184-7.03.265-10.546v-.01c.064-2.806.129-5.612.204-8.418.007-.263.093-.523.18-.783.07-.212.141-.425.17-.641.157-1.182.317-2.363.477-3.544v-.001c.488-3.591.975-7.182 1.362-10.783.132-1.228.157-2.472.182-3.714.034-1.641.067-3.281.347-4.879 1.034-5.914 2.189-11.807 3.344-17.7l.003-.013c.506-2.581 1.012-5.163 1.507-7.746.353-1.836.71-3.672 1.068-5.508 1.01-5.188 2.02-10.377 2.92-15.585.546-3.168.937-6.364 1.328-9.559.158-1.298.317-2.596.486-3.891.073-.556.123-1.117.174-1.678l.001-.007c.092-1.023.185-2.045.409-3.037.418-1.856.902-3.698 1.385-5.539.317-1.208.634-2.415.933-3.627.054-.222-.024-.477-.103-.732-.036-.118-.073-.236-.096-.351a3.595 3.595 0 0 1-.31.129c-.234.091-.468.182-.62.349l-.026.028c-.419.462-.873.963-1.07 1.532-.727 2.105-1.448 4.222-1.979 6.382-.367 1.493-1.05 2.409-2.602 2.61-.667.086-1.333.178-1.998.269h-.003l-.004.001c-3.372.463-6.728.923-10.206.723-3.411-.196-6.845-.007-10.276.181-1.274.07-2.546.14-3.818.19-.435.017-.868.11-1.301.203-.472.102-.943.203-1.416.206-.308.001-.62.008-.933.016-1.393.032-2.815.065-4.045-.389-.425-.157-.565-1.1-.706-2.05-.066-.446-.132-.893-.229-1.261-.023-.09-.085-.17-.147-.25a1.92 1.92 0 0 1-.078-.106l-.851-1.279-.344-.517c-.085.216-.188.43-.292.645-.226.47-.452.939-.477 1.419-.104 2.05-.164 4.118-.012 6.161.277 3.712-.6 7.215-1.477 10.721a101.793 101.793 0 0 0-.818 3.432c-.396 1.849-1.537 2.243-3.148 1.968-4.111-.703-8.206-1.35-12.395-.471-1.27.267-2.563.451-3.855.636-2.144.306-4.283.611-6.305 1.289-3.894 1.305-7.72 3.058-11.227 5.201-1.755 1.072-2.238.982-2.889-.694a558.372 558.372 0 0 0-2.004-5.054c-1.569-3.92-3.138-7.841-4.491-11.836-.676-1.993-1.028-4.094-1.38-6.199-.199-1.19-.398-2.38-.656-3.552-.17-.774-.343-1.546-.515-2.319l-.001-.002c-1.797-8.042-3.586-16.049-2.513-24.486.718-5.648 3.894-9.776 8.953-11.584 7.52-2.687 15.352-3.893 23.179-5.097l.026-.004 1.812-.28c3.452-.535 6.918-.984 10.383-1.433l.013-.002h.002c2.176-.282 4.352-.564 6.525-.868.239-.033.454-.237.668-.441.1-.094.2-.189.303-.267-.095-.113-.188-.255-.281-.397-.201-.307-.402-.615-.617-.625l-.715-.034c-1.771-.088-3.557-.177-5.304.029-3.21.378-6.404.897-9.598 1.416-.722.118-1.443.235-2.165.351-.81.13-1.621.257-2.431.385-3.235.51-6.471 1.02-9.68 1.663-2.023.405-4.025.916-6.027 1.428l-.002.001c-1.37.35-2.741.7-4.119 1.016-5.351 1.228-9.386 4.16-12.027 9.07-1.365 2.538-1.523 5.265-1.473 8.02.057 3.171.183 6.347.454 9.505.221 2.565.626 5.122 1.084 7.657.383 2.123.823 4.235 1.263 6.347.252 1.209.504 2.418.745 3.629.164.822.293 1.657.422 2.491.262 1.702.525 3.403 1.084 4.999 1.077 3.072 2.307 6.09 3.537 9.108.706 1.734 1.414 3.47 2.092 5.215.295.76.64 1.505.985 2.25 1.048 2.262 2.097 4.527 1.758 7.228-.057.45.298.974.63 1.463.09.133.178.264.256.389 1.547 2.498 4.079 2.638 6.502 2.773.266.014.53.029.791.047 1.516.102 2.292.728 2.748 1.946a367.492 367.492 0 0 1 1.963 5.413 396.669 396.669 0 0 0 1.796 4.963 257.403 257.403 0 0 0 1.636 4.256c.633 1.62 1.267 3.241 1.864 4.874.594 1.627 1.379 1.828 2.817.902 1.741-1.121 3.503-2.211 5.264-3.301l.004-.002c2.095-1.297 4.19-2.593 6.251-3.942.524-.342.988-1.453.842-2.05-.603-2.463-1.305-4.902-2.008-7.341l-.001-.003v-.001c-.283-.982-.566-1.964-.843-2.948-.157-.559-.349-1.119-.54-1.68-.455-1.327-.909-2.656-.909-3.984 0-1.554 1.15-1.956 2.335-2.37.795-.278 1.606-.561 2.097-1.202.218-.285.613-.426 1.014-.568.218-.078.438-.157.632-.259 3.547-1.882 6.639-4.094 7.202-8.597.29-2.322.899-4.585 1.509-6.849.928-3.443 1.856-6.889 1.663-10.546-.015-.286.476-.84.765-.865 2.537-.215 5.08-.427 7.624-.468a235.55 235.55 0 0 1 5.576-.002h.004c2.53.02 5.061.039 7.587-.054 1.265-.047 2.537.006 3.81.058 2.947.121 5.899.243 8.789-.864.661-.253 2.254-.74 1.969 1.22-.247 1.699-.482 3.399-.718 5.1v.002c-.481 3.477-.963 6.955-1.543 10.416-.605 3.611-1.316 7.205-2.027 10.798l-.001.002-.005.026c-.291 1.47-.582 2.94-.866 4.412-.235 1.22-.475 2.44-.715 3.66-.43 2.184-.86 4.368-1.262 6.557l-.122.662c-.59 3.206-1.18 6.414-1.655 9.638a847.595 847.595 0 0 0-2.232 16.424c-.1.787-.128 1.589-.155 2.389-.04 1.186-.08 2.37-.358 3.497-1.331 5.4-1.887 10.847-1.752 16.399.053 2.148.041 4.298.029 6.448-.008 1.458-.016 2.915-.005 4.372.006.666-.025 1.345-.056 2.025-.077 1.703-.155 3.413.335 4.931 1.583 4.902 5.633 7.425 10.328 8.573 3.963.968 8.026 1.487 12.195 1.033 3.29-.358 6.104-1.615 7.805-4.281 2.653-4.159 5.085-8.514 7.115-13.014 3.333-7.388 6.402-14.906 9.327-22.47 1.279-3.309 2.36-6.695 3.441-10.082l.009-.024c.566-1.775 1.132-3.55 1.728-5.314a486.468 486.468 0 0 1 1.819-5.255l.001-.002c1.019-2.905 2.037-5.81 2.961-8.745 1.218-3.863 2.254-7.79 3.229-11.724 1.37-5.526 2.641-11.078 3.885-16.635.097-.432.208-.87.321-1.311.411-1.614.832-3.264.561-4.763-.287-1.582.296-1.909 1.222-2.316.322-.141.647-.28.971-.418 2.709-1.152 5.407-2.299 6.588-5.445.15-.401.303-.801.456-1.202l.002-.005c.565-1.479 1.131-2.961 1.576-4.477.206-.704.42-1.408.634-2.113.806-2.652 1.615-5.311 2.032-8.027.738-4.802 1.132-9.676 1.371-14.534.316-6.418.402-12.85.459-19.276.015-1.761-.105-3.521-.225-5.283a116.242 116.242 0 0 1-.187-3.175c-.103-2.547-.188-5.096-.272-7.645v-.008c-.173-5.217-.346-10.434-.677-15.64-.329-5.179-.898-10.37-1.793-15.478-1.279-7.307-3.162-14.496-6.651-21.096l-.937-1.776c-3.139-5.949-6.285-11.91-9.867-17.581-2.344-3.712-5.363-7.144-8.644-10.053-.996-.882-2.047-1.704-3.099-2.525-2.085-1.629-4.172-3.26-5.838-5.377-.321-.407-.519-1.01-.526-1.525-.003-.21.646-.595 1.017-.619 4.236-.27 7.49-2.604 10.229-5.484 4.878-5.129 8.114-11.192 9.727-18.238l.263-1.139v-.003c1.006-4.327 1.997-8.589.977-13.045-1.694-7.399-5.236-13.915-10.463-19.259-8.055-8.235-17.943-10.688-29.088-8.194-.453.102-.97.045-1.433-.054-.434-.093-.868-.226-1.3-.358-.784-.24-1.566-.479-2.35-.481-2.84-.006-5.718.013-8.509.47-2.349.384-4.643 1.166-6.918 1.941h-.001c-.285.098-.571.195-.856.291-.425.144-.759.562-1.093.981a7.15 7.15 0 0 1-.469.55c.227.071.457.167.687.262.505.21 1.01.42 1.485.365 1.111-.13 2.21-.363 3.31-.597.686-.145 1.371-.291 2.06-.412.303-.052.624.003.945.059.147.025.295.051.441.066-.108.145-.207.308-.306.471-.214.353-.428.707-.741.884-.757.428-1.545.81-2.331 1.192-1.274.619-2.546 1.237-3.686 2.047-.404.287-.822.564-1.242.842-1.863 1.236-3.757 2.491-4.641 4.766-.098.251-.091.544-.084.838.003.135.007.271 0 .403a4.38 4.38 0 0 1 .405-.03c.298-.013.596-.026.818-.164Zm48.218 62.79c-3.616 4.575-6.917 9.382-8.734 15.043-4.463 8.313-5.973 16.984-5.31 26.024.22 3.006.661 5.996 1.102 8.986l.001.005c.22 1.487.439 2.976.632 4.466.125.969.236 1.94.348 2.911v.001c.177 1.535.354 3.071.583 4.598.054.361.312.69.571 1.02.118.152.238.304.336.459.136-.193.306-.385.477-.577.373-.419.746-.839.748-1.26.01-2.034-.194-4.078-.447-6.101-.146-1.173-.338-2.341-.529-3.508-.284-1.73-.567-3.458-.704-5.199-.308-3.907-.43-7.836-.465-11.757-.054-6.205 1.565-12.06 4.005-17.7.224-.517.446-1.037.668-1.556v-.001l.001-.001c1.005-2.354 2.012-4.712 3.237-6.944 1.355-2.47 3.006-4.797 4.716-7.039 1.563-2.049 2.541-2.076 4.121-.048l.715.916c2.803 3.585 5.591 7.152 7.604 11.366 1.549 3.244 3.314 6.383 5.079 9.523l.002.003c1.617 2.877 3.235 5.755 4.688 8.714 1.113 2.268 1.678 4.83 2.236 7.363.123.561.247 1.121.376 1.675.896 3.854 1.634 7.748 2.349 11.642.138.754.285 1.509.432 2.265l.001.003c.522 2.681 1.045 5.369 1.199 8.073.227 3.981.292 7.971.357 11.961v.01c.042 2.558.084 5.117.168 7.674.083 2.505.222 5.011.362 7.517v.001c.254 4.585.509 9.168.418 13.745-.07 3.48-.445 6.952-.82 10.424-.337 3.113-.673 6.226-.79 9.346-.176 4.714-1.497 9.122-2.815 13.523-.502 1.674-1.003 3.348-1.441 5.036-.625 2.411-2.341 4.748-5.399 5.816-1.999.698-3.891 1.702-5.785 2.707h-.002c-1.839.976-3.678 1.952-5.615 2.648-2.58.927-5.346 1.345-8.1 1.761-.804.121-1.606.242-2.403.376-1.255.211-2.667.341-3.847-.024-3.56-1.098-4.046-1.804-3.933-5.534.232-7.616.531-15.231.891-22.843.114-2.419.297-4.834.48-7.25.138-1.816.276-3.633.384-5.451l.105-1.697v-.004c.178-2.826.357-5.656.302-8.479-.055-2.886-.452-5.776-.869-8.639-.402-2.76.692-3.579 3.496-3.106 6.175 1.041 12.247.461 17.721-2.819 3.458-2.071 4.801-5.832 5.508-9.555.356-1.874.453-3.797.549-5.721.091-1.804.182-3.609.486-5.375 1.324-7.672 1.343-15.386 1.263-23.116-.022-2.118-.219-4.241-.465-6.346-.048-.405-.312-.784-.576-1.163l-.001-.001a6.99 6.99 0 0 1-.342-.524 6.866 6.866 0 0 1-.451.499c-.352.364-.704.728-.766 1.137-.154 1.012-.116 2.057-.077 3.097v.005c.009.241.018.481.024.72.043 1.585.114 3.171.186 4.757.156 3.465.312 6.929.169 10.38-.101 2.422-.521 4.827-.941 7.235-.271 1.546-.541 3.095-.727 4.648-.154 1.284-.2 2.582-.246 3.879-.048 1.352-.097 2.704-.266 4.041-.503 3.952-1.846 7.761-5.401 9.774-2.282 1.291-5.177 1.967-7.815 2.019-3.321.066-6.649-.203-9.977-.472-1.411-.114-2.822-.229-4.233-.317-.789-.05-1.581-.083-2.373-.117h-.004c-1.68-.07-3.361-.141-5.021-.367-3.15-.43-6.287-.949-9.425-1.468-1.535-.254-3.07-.508-4.606-.752-.795-.126-1.588-.263-2.382-.401l-.012-.002c-2.137-.371-4.276-.742-6.428-.885-1.908-.126-1.822-1.241-1.62-2.383.128-.721.356-1.427.583-2.131.268-.833.536-1.664.638-2.518.245-2.054-.275-3.959-2.167-5.215-1.31-.871-1.348-1.12.163-1.756 1.523-.64 3.176-1.296 4.786-1.332 6.542-.149 13.1-.285 19.633.014 3.549.161 7.082.722 10.61 1.283 1.051.167 2.102.333 3.152.49.346.051.647.358.955.671.182.185.365.372.561.51.318.224.814.562 1.044.452.304-.146.61-.688.595-1.046-.114-2.712-.244-5.427-.498-8.128-.071-.766-.226-1.524-.38-2.282-.173-.85-.346-1.699-.402-2.557-.159-2.433-.246-4.87-.334-7.308v-.008c-.045-1.255-.09-2.511-.145-3.766-.043-.997-.12-1.996-.196-2.995-.161-2.101-.322-4.201-.175-6.28.21-2.969.686-5.92 1.162-8.87.175-1.084.35-2.169.512-3.254.064-.429.121-.861.178-1.293v-.001l.001-.002c.186-1.409.373-2.825.801-4.157.806-2.513 2.132-4.849 5.091-5.128.88-.083 1.781.117 2.687.318.522.116 1.045.232 1.565.295.592.071 1.192.067 1.792.063.27-.002.539-.004.808.001-.184-.246-.352-.536-.52-.825-.364-.627-.728-1.253-1.248-1.44-4.438-1.597-8.861-1.306-11.061 3.989-1.197 2.879-2.221 5.938-2.651 9.011-.121.867-.249 1.734-.377 2.602-.722 4.913-1.448 9.841-1.057 14.859.249 3.214.465 6.43.68 9.646.22 3.285.44 6.57.697 9.852.079 1.015.276 2.021.472 3.028.131.67.262 1.341.359 2.015.018.13-.54.532-.746.478-.861-.225-1.718-.512-2.573-.799-1.675-.562-3.347-1.123-5.045-1.213-7.662-.403-15.348-.582-23.017-.427-2.349.048-2.549-.472-2.561-2.526-.052-8.696 2.161-16.888 5.058-24.954.031-.087.106-.171.176-.251.088-.1.17-.193.154-.274a23.91 23.91 0 0 0-.412-1.659c-.052-.193-.105-.385-.155-.578a7.83 7.83 0 0 1-.438.481c-.328.342-.657.684-.794 1.092a222.023 222.023 0 0 1-1.075 3.093c-1.077 3.047-2.155 6.099-2.817 9.238-.689 3.271-1.04 6.616-1.39 9.961v.004c-.153 1.458-.306 2.917-.486 4.37-.028.22-.017.47-.005.721.036.812.073 1.639-1.183 1.5-.429-.048-1.087-1.608-.983-2.383.145-1.077.285-2.156.424-3.235.613-4.735 1.227-9.478 2.277-14.116 1.161-5.122 2.725-10.152 4.287-15.177l.006-.022c.343-1.101.685-2.202 1.023-3.303.287-.936.845-1.79 1.402-2.64l.001-.001v-.001c.219-.334.438-.668.639-1.007.904-1.517 1.825-3.023 2.746-4.53l.527-.863c.309-.506.625-1.008.941-1.51l.434-.691c.136.237.29.469.445.701.341.511.683 1.023.816 1.584.192.803.308 1.625.423 2.447.143 1.019.287 2.036.573 3.012.286.974 1.114 2.359 1.865 2.477.985.155 2.544-.446 3.148-1.259 3.753-5.053 7.401-10.186 11.049-15.319.965-1.357 1.93-2.715 2.897-4.071.241-.338.501-.705.593-1.098.052-.221-.01-.47-.073-.719-.027-.11-.055-.221-.073-.329a3.02 3.02 0 0 1-.313.102c-.232.066-.465.133-.59.288l-.341.424c-1.781 2.211-3.564 4.423-5.269 6.693a882.607 882.607 0 0 0-5.773 7.805c-.997 1.359-1.995 2.718-2.996 4.074-.082.11-.185.206-.287.302-.117.109-.235.218-.32.349-.209.322-.393.661-.577 1l-.232.422c-.103-.217-.235-.434-.366-.651-.285-.473-.57-.945-.569-1.417.009-2.705-.462-5.262-1.855-7.581a6.923 6.923 0 0 1-.263-.503c-.392-.802-.816-1.667-2.149-1.087-.059.026-.604-.714-.668-1.136-.396-2.578.595-4.031 2.827-5.57 3.224-2.221 6.448-4.515 9.317-7.169 2.365-2.188 4.554-4.568 6.744-6.949a258.765 258.765 0 0 1 3.067-3.297c.101-.106.191-.218.277-.324.43-.532.741-.916 1.574.397.848 1.337 2.131 2.393 3.414 3.448.551.454 1.103.908 1.62 1.384l.016.015c.846.779 1.45 1.335.387 2.68Zm-94.362 158.505.367-.081c.744.206 1.562.538 1.739 1.083 1.565 4.819 3.05 9.665 4.535 14.51l.497 1.62c.178.581.358 1.162.538 1.743.687 2.212 1.374 4.424 1.947 6.666.399 1.563.274 2.884-1.448 4.044-1.8 1.214-3.452 2.651-5.105 4.089-.9.783-1.802 1.567-2.728 2.316-1.096.886-1.436-.158-1.647-.805a6.156 6.156 0 0 0-.069-.206c-.993-2.741-1.861-5.529-2.712-8.32-.138-.455-.335-.969-.535-1.491-.536-1.397-1.095-2.856-.63-3.415.982-1.18 2.485-1.92 3.987-2.658a32.432 32.432 0 0 0 1.763-.911c.131-.075.276-.129.421-.182.181-.067.362-.134.515-.243.377-.268.734-.567 1.09-.865.147-.124.295-.248.444-.369-.256-.104-.532-.256-.808-.407-.603-.331-1.205-.662-1.595-.492-1.894.825-3.776 1.842-5.371 3.15-1.304 1.068-1.88.963-2.416-.511l-.214-.589a1393.29 1393.29 0 0 1-4.57-12.712c-.059-.169.296-.576.543-.751 3.449-2.44 7.456-3.327 11.462-4.213Zm7.095 8.566c-.065-.433-.132-.872-.479-.982-.348-1.267-.718-2.361-1.067-3.395-.224-.665-.441-1.306-.638-1.953-.682-2.234-.088-3.096 2.204-2.968 2.304.128 4.605.323 6.905.519 1.427.122 2.855.243 4.283.348 1.345.1.935.756.515 1.431l-.005.007c-2.184 3.503-5.64 5.287-9.084 7.065-.423.219-.846.437-1.266.659-1.165.613-1.265-.053-1.368-.731Zm-24.83 3.352c-1.034-1.367-1.542-2.508-.2-3.883 1.502-1.067 2.763-1.942 4.076-2.726.208-.125.5-.105.792-.086.135.009.269.018.395.012a2.84 2.84 0 0 1-.113.296c-.09.215-.18.429-.149.625.068.427.126.859.184 1.292.175 1.308.352 2.62.792 3.832.533 1.469.092 1.915-1.186 1.921a20.64 20.64 0 0 0-.785.025c-1.368.061-2.724.121-3.806-1.308Z" fill="#00160A"/><path d="m426.197 617.783 1.386-.05a55.99 55.99 0 0 1 5.151-.327c1.993-.027 3.626-.756 4.308-2.689a732.268 732.268 0 0 0 5.798-17.175c.082-.253.235-.51.39-.771.441-.742.904-1.522-.158-2.371-.207.287-.435.566-.662.846-.496.61-.993 1.221-1.287 1.918-1.292 3.063-2.547 6.156-3.556 9.322-.541 1.699-1.705 2.183-3.096 2.31-2.829.257-5.677.514-8.511.45-9.47-.213-18.942-.478-28.404-.914-3.697-.171-6.271-3.445-5.482-7.103.226-1.049 1.42-2.121 2.441-2.646.318-.164 1.015.393 1.677.922.243.194.482.385.695.535.233.163.445.357.657.551.217.199.434.397.673.563.749.518 1.302.425 1.351-.628.071-1.525-2.569-4.265-4.108-4.327-4.232-.17-5.624 2.709-6.127 6.137-.504 3.441 3.37 7.955 7.923 8.286 2.76.201 5.525.374 8.291.448 7.001.188 14.003.375 21.006.434 1.813.015 3.627-.096 5.441-.208l.005-.001.026-.001c1.163-.072 2.326-.143 3.49-.181.24-.008.486.181.732.369a3.6 3.6 0 0 0 .342.243c-.303.354-.587.772-.872 1.189-.63.926-1.261 1.851-2.084 2.085-1.865.529-3.889.544-5.887.559-.418.003-.835.006-1.25.014-3.865.072-7.737.136-11.598-.013-.554-.021-1.109-.04-1.665-.06-3.576-.125-7.173-.251-10.666-.89-4.818-.882-9.588-2.035-14.356-3.188l-.007-.002-.007-.001-.006-.002c-1.734-.419-3.467-.838-5.202-1.244l-.245-.057c-1.731-.4-3.676-.85-4.065-2.822-.306-1.551.793-2.48 1.873-3.393.36-.304.717-.606 1.02-.929.018-.019.059-.013.102-.007.041.007.085.013.114-.001l1.494-.72.002-.001.002-.001h.001c1.613-.775 3.226-1.55 4.812-2.378.322-.168.569-.484.816-.8.113-.146.227-.291.348-.422-.161-.067-.332-.164-.502-.26-.368-.209-.736-.417-1.008-.328l-.312.102c-3.499 1.141-7.056 2.301-9.499 5.293-2.588 3.168-1.776 6.93 1.717 8.05 2.504.803 5.043 1.497 7.582 2.191l.005.002h.002l.001.001c1.734.474 3.469.949 5.193 1.458 6.335 1.87 12.834 2.123 19.332 2.375 2.037.08 4.075.159 6.108.288 2.738.174 5.494.073 8.315-.03ZM368.659 511.775c-1.111 1.076-2.23 2.123-3.342 3.164-2.518 2.357-4.997 4.677-7.248 7.205-2.63 2.951-4.853 6.318-6.925 9.706-.616 1.007-.767 2.314-.915 3.603-.052.448-.103.895-.174 1.325-.038.231.127.496.292.76.076.123.152.245.208.363.085-.101.18-.198.275-.295.208-.211.415-.423.511-.677.187-.493.333-1.009.478-1.524.257-.91.513-1.816.991-2.584.266-.427.531-.858.795-1.291 1.415-2.312 2.852-4.66 4.742-6.503 5.117-4.988 10.409-9.793 15.7-14.598l.013-.012.008-.007.003-.003.015-.013c1.487-1.351 2.974-2.701 4.457-4.056.288-.262.697-.39 1.105-.517.19-.06.38-.119.558-.192-.047.226-.07.477-.093.727-.051.542-.101 1.085-.395 1.382-2.33 2.356-4.702 4.688-7.223 6.833-5.288 4.5-10.385 9.132-14.496 14.84-2.21 3.07-3.803 6.324-5.002 9.871-.798 2.357-.015 4.469.75 6.532l.002.007.002.005.105.285c.522 1.415 3.777 1.896 5.978 1.177 5.643-1.842 10.458-5.191 14.737-9.141 5.639-5.206 11.092-10.66 16.197-16.396 2.416-2.715 4.385-5.844 6.348-8.963.574-.913 1.148-1.825 1.733-2.725.322-.497.412-1.139.504-1.789.06-.432.122-.868.252-1.267.088-.268.352-.478.616-.688.12-.096.241-.192.344-.293.084.124.184.245.285.366.218.262.436.524.479.812.377 2.553-.408 4.819-1.9 6.849-4.147 5.644-8.406 11.174-13.531 15.994-1.697 1.595-3.27 3.322-4.844 5.05-1.161 1.274-2.323 2.549-3.534 3.771-5.212 5.26-11.56 8.662-18.52 10.842-3.256 1.019-6.381-1.114-7.666-4.513-.303-.801-.712-1.561-1.121-2.321-.384-.712-.768-1.425-1.064-2.171-2.084-5.251-.571-9.707 2.562-14.184 4.994-7.138 11.505-12.618 18.041-18.119l.259-.217c.403-.339.987-.527 1.515-.622.33-.059.871.088 1.025.331.139.219.001.844-.225 1.033-.736.614-1.5 1.194-2.298 1.799l-.001.001-.001.001c-.445.338-.901.684-1.367 1.047Z" fill="#00160A"/><path fill-rule="evenodd" clip-rule="evenodd" d="M440.187 594.926a762.713 762.713 0 0 0 3.578-13.151c1.458-3.591 2.039-7.135 2.293-10.78.013-.19.056-.389.097-.582.127-.595.242-1.131-.554-1.155-.596-.019-1.533.942-1.767 1.647-.192.577-.23 1.209-.267 1.839-.042.686-.083 1.37-.322 1.978-.385.98-1.248 2.042-2.173 2.484-3.284 1.566-6.533.936-9.548-.878-.562-.339-1.174-1.335-1.079-1.912.159-.958.426-1.897.693-2.837.269-.946.538-1.892.695-2.856.078-.476-.21-1.013-.497-1.549-.131-.245-.263-.49-.359-.729-.156.17-.338.332-.519.494-.399.355-.798.711-.927 1.148-.26.877-.419 1.783-.579 2.69-.136.769-.271 1.537-.467 2.289a191.065 191.065 0 0 1-.973 3.539v.001c-1.201 4.264-2.401 8.526-2.523 13.033-.045 1.679-2.507 3.584-4.237 3.346-.32-.044-.855-1.195-.741-1.318.423-.458.91-.854 1.398-1.251.342-.278.684-.557 1.005-.857.349-.326.645-.789.757-1.242.034-.135-.61-.586-.987-.658-2.325-.442-5.772 3.392-5.129 5.682.366 1.303.769 2.596 1.171 3.889l.098.312c.127.409.273.813.419 1.216.067.184.134.368.198.553.123-.175.254-.346.386-.516.288-.372.575-.744.761-1.161.983-2.207 4.65-3.625 6.195-2.096 2.833 2.805 6.304 2.751 9.707 2.356 1.602-.186 3.605-.865 4.197-2.968Zm-13.251-3.449c.037-.232.075-.463.089-.684a161.985 161.985 0 0 0 1.994-10.277c.277-1.708.95-1.988 2.588-1.397 2.843 1.025 5.755 2.05 8.873.892.303-.113.696.02 1.088.152.181.061.363.123.536.16-.032.148-.062.297-.092.446-.065.32-.13.642-.212.958a409.384 409.384 0 0 1-.819 3.075c-.578 2.146-1.155 4.292-1.66 6.455-.629 2.695-2.413 4.534-5.096 4.946-2.191.337-6.583-1.564-7.29-3.31-.164-.405-.081-.91.001-1.416Z" fill="#00160A"/><path d="m464.038 506.88.001-.002.002-.004a340.633 340.633 0 0 1 2.617-6.107c.255-.573.821-1.022 1.359-1.45.112-.089.222-.176.328-.263.176-.146.75-.112.862.044.193.269.332.775.207 1.049-2.275 4.971-4.558 9.939-6.921 14.869-.779 1.627-2.164 2.465-4.026 2.281-.761-.075-1.523-.146-2.285-.217l-.003-.001-.011-.001c-2.23-.208-4.46-.417-6.676-.722-.915-.126-1.857-.61-2.613-1.17-.381-.283-.626-.754-.871-1.225-.11-.21-.219-.42-.34-.614.256 0 .529-.03.802-.06.591-.065 1.181-.13 1.61.105 3.534 1.941 7.364 1.845 11.115 1.507.649-.058 1.226-.925 1.835-1.84.297-.445.601-.903.925-1.284a458.01 458.01 0 0 0 2.083-4.895ZM350.237 429.366c.521 3.085 1.046 6.169 1.682 9.366.247 1.014.448 2.02.646 3.013.309 1.551.613 3.071 1.075 4.54.998 3.167 2.28 6.25 3.577 9.31.148.35.621.56 1.094.77.218.097.437.194.623.305a8.02 8.02 0 0 1 .043-.667c.044-.498.089-.995-.068-1.415-.197-.529-.488-1.031-.777-1.529-.383-.661-.764-1.318-.924-2.029-.912-4.075-1.78-8.16-2.647-12.245-.773-3.638-1.546-7.277-2.35-10.908-.117-.527-.513-.991-.909-1.456a8.902 8.902 0 0 1-.524-.652 19.09 19.09 0 0 1-.24.625c-.194.491-.389.981-.486 1.491-.065.337.018.705.1 1.07.031.138.062.276.085.411ZM449.568 495.656c-.887-.37-1.551-.74-2.215-1.109.201-.073.404-.172.607-.27.44-.214.88-.427 1.292-.382 1.318.143 2.632.34 3.945.538l.001.001c1.985.298 3.967.597 5.961.706 2.264.124 4.536.076 6.809.028h.009c1.489-.032 2.979-.064 4.466-.047.528.006 1.054.226 1.579.446.243.101.485.203.727.283-.174.122-.347.277-.52.432-.374.334-.748.668-1.128.675l-.92.019h-.004c-4.164.087-8.334.174-12.489-.027-1.737-.084-3.463-.42-5.252-.77h-.002a79.82 79.82 0 0 0-2.866-.523ZM409.236 409.182c-.384-.03-.778-.06-1.183-.096l-.549.002c-.304.002-.546.004-.787-.003l-3.618-.113h-.005c-3.629-.114-7.259-.228-10.889-.315-.454-.011-.966.198-1.359.451-.294.189-.535.461-.775.733-.106.118-.211.237-.32.349.156.074.312.167.469.26.335.201.671.402 1.012.411 7.063.193 14.127.339 21.191.458.324.005.651-.137.978-.279.152-.065.304-.131.455-.182a5.193 5.193 0 0 1-.33-.475c-.237-.366-.473-.732-.769-.791-1.123-.224-2.273-.313-3.521-.41ZM430.202 542.161l.001-.013c.491-3.913.964-7.693 1.571-11.452.081-.506.544-.949 1.007-1.392.214-.205.428-.41.605-.621.059.237.146.48.233.723.188.523.375 1.047.282 1.512-1.451 7.204-2.345 14.454-2.229 21.821.006.345-.252.695-.509 1.045-.12.162-.239.325-.333.487a6.902 6.902 0 0 0-.5-.628c-.39-.456-.78-.912-.783-1.371-.012-1.794.106-3.589.228-5.461.053-.804.107-1.622.151-2.459l.276-2.191ZM478.613 474.162c-.107.573-.216 1.162-.364 1.768-.058.37-.064.713-.07 1.04a6.12 6.12 0 0 1-.055.868c-.19 1.166-.396 2.331-.602 3.495v.002c-.412 2.329-.824 4.657-1.103 7.001-.022.194-.069.408-.117.633-.212.978-.463 2.138 1.02 2.482.182.042 1-1.931 1.229-3.032.666-3.185 1.208-6.399 1.747-9.61.366-2.18.709-4.37.909-6.569.027-.293-.276-.616-.579-.939-.14-.149-.28-.298-.387-.444-.126.125-.274.243-.422.362-.325.259-.65.519-.746.847-.197.677-.326 1.374-.46 2.096ZM385.621 502.307c3.755-2.173 7.634-2.147 11.514-1.174.714.179 1.335.736 1.956 1.294.285.256.57.512.864.732a14.31 14.31 0 0 0-.997.099c-.725.088-1.451.177-2.121.022-4.547-1.053-8.64-.12-12.446 2.497-.34.234-.747.369-1.155.503-.188.063-.377.125-.558.197a9.63 9.63 0 0 0-.241-.545c-.194-.415-.388-.831-.293-.917.73-.653 1.518-1.24 2.348-1.858l.001-.001.002-.001.001-.001.001-.001c.367-.273.742-.552 1.124-.846ZM437.475 276.979l-.002.001-.293.11c-1.009.36-2 .685-2.975 1.004-1.161.38-2.301.754-3.424 1.172-.451.167-.834.523-1.216.879-.175.163-.35.326-.532.471.209.092.431.223.654.355.48.284.96.568 1.308.451 3.311-1.116 6.569-2.395 9.825-3.673l.218-.086c.243-.095.516-.817.465-.859a6.702 6.702 0 0 1-.111-.092h-.001c-.351-.29-.779-.644-1.118-.589-.917.147-1.804.481-2.781.85l-.017.006ZM413.521 596.992a40.274 40.274 0 0 0-.451-.654c-.467-.67-.897-1.285-1.194-1.959-.258-.588-.469-1.726-.208-1.912.574-.409 1.633-.725 2.187-.449 1.614.805 3.074 7.126 2.044 8.564-.157.219-1.44.049-1.528-.193-.227-.618-.366-1.269-.511-1.95a23.872 23.872 0 0 0-.339-1.447ZM406.238 597.096c.305.565.621 1.154.922 1.812.036.2.065.39.093.572.089.578.163 1.065.383 1.471.222.41.555.757.888 1.105.145.151.291.303.427.46.139-.163.305-.32.47-.477.362-.344.724-.687.815-1.092.398-1.783-1.245-5.993-3.099-7.166-.305-.193-.792-.094-1.279.006-.224.045-.447.091-.654.108.024.176.036.358.048.54.027.401.053.801.209 1.141.234.51.501 1.005.777 1.52ZM404.035 599.81c-.278 1.203-.557 2.179-.835 3.156a39.823 39.823 0 0 1-.454-.808c-.334-.603-.667-1.206-1.059-1.768l-.284-.407c-.795-1.145-1.598-2.3-2.553-3.296l-.026-.027c-.713-.744-.815-.85.113-1.403 1.762-1.05 2.856.033 3.727 1.307.495.724.794 1.586 1.125 2.544l.001.001c.079.229.159.462.245.701ZM447.283 502.33l.053-.361c-.071-1.348-.141-2.47-.211-3.592v-.003c-1.349.266-1.48 1.209-1.627 2.425-.146 1.212-.407 2.409-.669 3.607-.205.941-.41 1.883-.56 2.833-.045.282.651.834 1.096.988.266.092.979-.291 1.035-.558.357-1.703.607-3.43.883-5.339ZM432.27 257.026a6.51 6.51 0 0 0-.406-.322c-.216-.162-.399-.299-.521-.478-.247-.36-.449-.752-.65-1.143-.085-.164-.169-.327-.257-.489.188-.017.398-.062.609-.106.457-.098.915-.195 1.131-.008 1.658 1.433 3.248 2.963 4.704 4.603.186.21.033.726-.119 1.243a6.578 6.578 0 0 0-.178.685c-.131-.093-.266-.182-.401-.271-.296-.195-.592-.391-.844-.633a103.269 103.269 0 0 1-2.146-2.145 191.84 191.84 0 0 0-.922-.936ZM427.949 260.048c-.264.36-.536.731-.813 1.036-.048.227-.116.465-.184.703-.307 1.074-.619 2.168.801 2.497 1.858.429 2.274-1.227 2.617-2.663a.307.307 0 0 0 .001-.105c-.004-.041-.008-.081.005-.116.451-1.211.488-2.62-.922-2.757-.443-.043-.956.657-1.505 1.405ZM441.988 272.241l-.041.044c-.804.869-1.536 1.659-2.692.785-.5-.378-1.312-1.099-1.211-1.384.315-.884.875-1.792 1.593-2.367.355-.284 1.565-.085 1.859.304.402.531.478 1.313.555 2.112.013.132.025.264.04.395l-.103.111ZM456.263 278.931c-.372-.501-.744-1.002-1.339-1.503-.744.662-1.264 1.324-1.785 1.986.128.075.264.178.4.28.301.225.602.45.811.383.489-.157.931-.467 1.372-.778.179-.126.359-.252.541-.368Z" fill="#00160A"/><path d="M429.252 187.972c1.211-1.212 2.332-2.291 3.394-3.427.24-.256.274-.705.403-1.066-.361.145-.822.193-1.066.448-2.616 2.73-5.844 4.364-9.434 5.368-1.541.43-3.079.879-4.641 1.219-.329.072-.753-.292-1.133-.456.195-.317.318-.801.598-.923 1.772-.769 3.526-1.662 5.384-2.127 3.516-.88 6.035-3.157 8.855-5.227 3.583-2.63 4.194-6.245 4.623-9.978.368-3.199-1.298-5.969-3.069-8.544-3.357-4.883-7.947-7.524-13.909-8.163-6.904-.739-12.248 1.877-16.809 6.758-.497.532-1.33.751-2.007 1.116.19-.924.084-2.096.617-2.732 5.584-6.658 15.585-9.553 24.681-5.636 6.958 2.997 11.419 8.249 12.617 15.4.94 5.611-.673 11.346-4.462 15.943-3.182 3.863-7.046 6.81-12.217 7.775-6.266 1.168-12.023.229-17.25-3.473-4.893-3.465-7.775-8.161-8.441-14.156-.183-1.651-.416-3.312-.39-4.964.008-.552.75-1.093 1.157-1.639.34.538.913 1.047.983 1.618.554 4.472 1.548 8.832 3.578 12.863 2.301 4.566 6.684 6.627 11.211 7.808 4.586 1.196 9.303.519 13.63-1.696 1.059-.542 1.993-1.325 3.097-2.109Z" fill="#FFB61D"/><path d="M409.76 177.218c.002-.674.115-1.236.229-1.798.413.192.901.3 1.226.59 2.217 1.974 1.969 1.85 3.396-.63 1.527-2.653 1.116-4.825-.188-7.39-1.391-2.739.149-3.882 2.385-4.753.194-.075.523-.115.649-.008 1.749 1.493 3.247-3.211 4.327-.542.832 2.058 2.566 2.932 3.513 4.591.257.451.015 1.188.002 1.794-.518-.092-1.154-.021-1.536-.299-3.404-2.475-3.414-2.5-4.516 1.463-.125.452.079 1.096.332 1.534 1.211 2.1 3.408 3.867 1.669 6.769-1.452 2.426-5.805 3.71-8.058 2.05-1.236-.91-2.22-2.162-3.43-3.371Zm6.833-1.681c-.257.706-.664 1.399-.721 2.121-.039.497.405 1.033.633 1.552.967-.518 2.2-.833 2.806-1.627.403-.528.025-1.773-.223-2.634-.155-.537-.721-.956-1.102-1.428-.39.597-.779 1.195-1.393 2.016Zm1.568-8.29.083-1.71c-.667.313-1.53.479-1.92.999-.205.274.418 1.168.667 1.782.316-.282.631-.564 1.17-1.071ZM412.224 189.54c-.046-.477.02-.842.087-1.207l1.145.76c-.373.186-.746.373-1.232.447ZM406.847 186.628c.486.003.859.119 1.232.235l-.558.883c-.262-.335-.524-.671-.674-1.118ZM171.751 293.935c-3.384-2.427-4.804-5.897-5.904-9.536-.146-.483.197-1.114.313-1.676.466.248 1.086.383 1.369.766.87 1.181 1.45 2.606 2.432 3.67 3.367 3.649 7.738 4.506 12.18 2.976 4.291-1.477 6.997-5.015 7.564-9.536.547-4.364-2.89-11.396-9.063-12.433-3.64-.612-6.433.451-9.326 2.17-.506.301-1.313.094-1.981.122.3-.576.455-1.346.923-1.699 7.313-5.513 15.352-2.372 19.811 3.811 1.492 2.069 2.008 5.062 2.324 7.709.52 4.368-.061 8.499-3.424 11.999-3.571 3.717-11.244 5.199-15.599 2.45-.461-.291-1.002-.457-1.619-.793Zm6.162.336c4.675.2 8.598-1.204 11.156-5.363.482-.784.705-1.728 1.047-2.598-.624.554-1.318 1.048-1.861 1.672-4.224 4.857-9.429 5.474-15.235 3.603-.358-.116-.727-.196-1.091-.293.227.396.362 1.006.697 1.15 1.583.68 3.22 1.232 5.287 1.829Z" fill="#FFB61D"/><path d="M180.041 273.547c.635.389 1.157.667 1.68.945-.394.17-.776.378-1.183.504-1.072.331-1.567 2.575-.735 3.665.447.586.946 1.314 1.58 1.543 2.253.815 1.329 2.724 1.124 3.93-.336 1.972-5.061 3.767-6.875 2.908-.251-.118-.618-.568-.597-.594.325-.402.645-.873 1.084-1.109 2.558-1.378 2.726-3.784.348-5.508-1.945-1.41-1.987-3.058-.288-4.941.527-.584.702-1.481 1.066-2.221.285-.577.614-1.133.923-1.699.438.512.898 1.006 1.303 1.542.204.269.309.613.57 1.035Zm-.112 8.401.024 2.265c.156-.023.449-.048.448-.068a51.86 51.86 0 0 0-.099-2.264c-.003-.055-.097-.105-.373.067ZM166.374 278.924c-.485-.312-1.236-.811-1.169-1.146a38.2 38.2 0 0 1 1.481-5.366c.149-.415.974-.589 1.489-.874.162.655.609 1.401.433 1.946-.586 1.815-1.397 3.557-2.234 5.44ZM531.57 258.312c1.122-3.193 2.181-6.263.618-9.497-.176-.364-.119-.888-.037-1.313.078-.409.328-.786.502-1.177.322.272.772.48.945.826 1.799 3.599 1.859 7.327.352 10.986-3.046 7.398-9.037 10.283-16.324 9.123-5.03-.8-8.876-3.933-10.573-9.072-.137-.414.02-.924.041-1.39.465.205 1.093.283 1.368.636 1.173 1.503 2.014 3.334 3.386 4.6 6.343 5.849 15.829 3.895 19.722-3.722Z" fill="#FFB61D"/><path d="M520.592 254.279c-.796-.945-1.521-1.749-2.146-2.623-.312-.437-.766-1.182-.601-1.479.845-1.523 2.085-2.853 1.982-4.768.516.083 1.413.043 1.486.268.426 1.323.873 2.704.901 4.074.03 1.472.399 2.365 1.79 3.065 3.454 1.739 3.631 4.537.682 7.075-.44.379-.4 1.296-.63 1.947-.182.517-.438 1.008-.661 1.511-.464-.313-.973-.577-1.386-.948-1.548-1.388-1.09-3.23-1.094-4.978-.003-1.011-.137-2.022-.323-3.144Zm3.472.784-1.341.451 1.691 3.232c.01-1.101.022-2.202.023-3.303 0-.052-.097-.104-.373-.38ZM513.646 242.18c-3.283 2.12-5.228 4.924-5.725 8.689-.062.47-.24.943-.453 1.37-.149.299-.449.523-.683.78-.215-.357-.569-.695-.623-1.075-.432-3.1.811-5.698 2.646-8.038 2.268-2.891 5.298-4.674 8.818-5.628.485-.132 1.091-.16 1.544.016.629.243 1.165.724 1.74 1.103-.504.218-1 .462-1.516.65-1.875.684-3.757 1.349-5.748 2.133ZM523.28 239.94c.691-.336 1.691-.976 2.261-.707 1.759.831 3.383 1.967 4.988 3.087.31.217.298.897.434 1.363-.509.056-1.15.339-1.508.133-2.058-1.191-4.049-2.497-6.175-3.876ZM370.817 274.107c-.896-1.942-1.93-3.607-2.629-5.401-.332-.852-.025-1.953-.007-2.941.58.764 1.236 1.483 1.725 2.302 1.464 2.445 2.597 5.138 4.342 7.355 3.612 4.59 8.766 5.145 14.125 2.869 6.45-2.74 9.97-8.252 10.844-14.532.695-4.996-.86-10.419-5.649-13.889-.403-.292-.399-1.146-.584-1.74.546-.004 1.168-.183 1.626.016 2.901 1.26 4.118 4.008 5.279 6.608 1.525 3.415 2.14 7.276 1.233 10.792-.788 3.056-2.922 5.79-4.594 8.588-2.807 4.7-7.5 6.695-12.503 7.404-2.334.331-5.168-.753-7.34-1.972-2.233-1.252-3.934-3.451-5.868-5.459Z" fill="#FFB61D"/><path d="M391.429 251.702c-.585 2.016-2.689 3.798-.023 5.636.128.088.035.802-.169.981-.194.17-.829.169-.995-.011-1.348-1.465-1.569-.068-1.938.757-.579 1.295-.481 2.358.326 3.754.95 1.645 1.894 3.792.097 5.673-.579.606-1.298 1.471-1.988 1.504-2.068.101-3.397.892-4.191 2.837-.226.554-1.069.856-1.629 1.273-.082-.734-.177-1.466-.24-2.202-.077-.894.002-1.826-.23-2.675-.175-.643-.888-1.14-1.066-1.784-.129-.464.081-1.211.421-1.548.22-.218 1.111-.104 1.422.174 1.66 1.487 1.664 1 2.33-.972.68-2.015.389-2.957-.997-4.147-1.432-1.231-1.319-2.952-.459-4.268.66-1.011 2.075-2.202 3.106-2.159 2.224.094 3.177-.897 4.011-2.659.912-1.925 1.204-1.912 2.212-.164Zm-6.049 4.929c-.523.656-1.278 1.25-1.475 1.992-.107.4.742 1.053 1.16 1.593.394-.588.775-1.185 1.188-1.759.171-.237.509-.386.603-.638.363-.967-.042-1.348-1.476-1.188Zm1.568 8.738-.148-1.045c-.357.157-.835.222-1.041.494-.274.361-.388.872-.478 1.337-.116.599-.139 1.216-.203 1.825.522-.321 1.116-.569 1.538-.989.251-.251.23-.774.332-1.622ZM370.481 253.606c3.599-4.107 8.456-5.604 13.217-7.259.464-.162 1.056-.114 1.548.005.447.108.838.445 1.254.681-.365.361-.665.875-1.105 1.06-3.292 1.389-6.626 2.678-9.919 4.067-3.385 1.427-4.707 4.375-5.591 7.673-.194.723-.839 1.325-1.277 1.983-.252-.815-.896-1.757-.681-2.421.631-1.951 1.603-3.792 2.554-5.789ZM378.322 283.405c-2.418-.29-4.148-1.575-5.438-3.467-.153-.224.058-.696.1-1.053.266.05.59.02.789.163a207.776 207.776 0 0 1 4.914 3.64c.044.034-.163.396-.365.717Z" fill="#FFB61D"/></svg>