<svg xmlns="http://www.w3.org/2000/svg" viewBox="0 0 511.968 511.968" style="enable-background:new 0 0 511.968 511.968" xml:space="preserve"><path style="fill:#6b6b6b" d="M0 354.16V107.008a8.082 8.082 0 0 1 7.936-7.936h374.696a8.082 8.082 0 0 1 7.936 7.936V354.16H0z"/><path d="M390.568 354.16v31.736a8.082 8.082 0 0 1-7.936 7.936H7.936C3.584 393.76.08 390.248 0 385.904v-31.736h390.568v-.008z"/><path style="fill:#333" d="M111.68 449.984h167.208v7.936H111.68z"/><path style="fill:#6b6b6b" d="M250.816 449.984H139.752l7.928-56.152h95.2z"/><path d="M15.864 114.944h358.832v223.352H15.864z"/><path style="fill:#333" d="M242.88 393.832h-95.2l-4.424 31.336 101.048-21.24z"/><circle style="fill:#e21b1b" cx="447.728" cy="212.784" r="64.24"/><path style="fill:#fff" d="M444.624 248.032V239.4a29.825 29.825 0 0 1-14.4-3.912l2.4-8.36a28.09 28.09 0 0 0 13.88 3.912c5.6 0 9.432-2.76 9.432-7.032 0-4-3.112-6.584-9.696-8.992-9.344-3.376-15.4-7.656-15.4-15.928.184-7.96 6.368-14.496 14.312-15.104v-8.72h7.296v8.28a28.443 28.443 0 0 1 12.28 2.936l-2.4 8.184a26.486 26.486 0 0 0-12.104-3.024c-6.224 0-8.456 3.2-8.456 6.232 0 3.648 3.2 5.696 10.768 8.72 9.968 3.736 14.4 8.544 14.4 16.464-.176 8.368-6.688 15.232-15.04 15.84v9.168l-7.272-.032z"/><circle style="fill:#e21b1b" cx="293.272" cy="116.488" r="62.44"/><path style="fill:#fff" d="M290.28 150.752v-8.368a28.926 28.926 0 0 1-14.016-3.808l2.336-8.136a27.308 27.308 0 0 0 13.504 3.808c5.456 0 9.168-2.68 9.168-6.84 0-3.896-3.024-6.4-9.432-8.744-9.088-3.288-14.976-7.44-14.976-15.488.168-7.76 6.2-14.128 13.936-14.712v-8.48h7.096v8a27.76 27.76 0 0 1 11.944 2.856l-2.336 8a25.701 25.701 0 0 0-11.776-2.944c-6.056 0-8.216 3.12-8.216 6.056 0 3.552 3.12 5.536 10.472 8.488 9.696 3.632 14.024 8.312 14.024 16-.176 8.136-6.504 14.808-14.624 15.4v8.912h-7.104z"/><circle style="fill:#999" cx="310.464" cy="268.24" r="48.32"/><path style="fill:#fff" d="M308.144 294.768v-6.496a22.442 22.442 0 0 1-10.848-2.952l1.808-6.296a21.2 21.2 0 0 0 10.456 2.944c4.224 0 7.112-2.08 7.112-5.288 0-3.016-2.344-4.96-7.304-6.776-7.04-2.544-11.592-5.76-11.592-12 .128-6.008 4.8-10.944 10.792-11.392v-6.528h5.496v6.232c3.208.032 6.368.792 9.248 2.208l-1.816 6.168a19.864 19.864 0 0 0-9.112-2.28c-4.696 0-6.4 2.4-6.4 4.688 0 2.752 2.4 4.288 8.112 6.568 7.504 2.816 10.848 6.4 10.848 12.392-.128 6.304-5.032 11.464-11.32 11.928v6.904l-5.48-.024z"/><circle style="fill:#fff" cx="178.744" cy="293.936" r="21.264"/><circle style="fill:#999" cx="178.744" cy="293.936" r="10.328"/><path style="fill:#fff" d="M98.608 190.416 84.64 149.088H48.48V138.04h44.088l16.504 48.832z"/><circle style="fill:#fff" cx="114.592" cy="293.936" r="21.264"/><path style="fill:#fff" d="m100.304 259.152-23.048-74.008h142.256l-26.384 74.008z"/><path style="fill:#e21b1b" d="m213.84 189.144-23.528 66.04h-87.064l-20.56-66.016H213.84m11.344-8.008H71.816l25.544 82.024h98.592s29.232-82.016 29.232-82.024z"/><path style="fill:#e21b1b" d="M210.744 210.176h-35.576l-8.552 15.024h-35.224l3.328 10.392h65.76z"/><circle style="fill:#999" cx="114.592" cy="293.936" r="10.328"/></svg>